solid OpenSCAD_Model
  facet normal 0.9588888019724261 0.15187340795092544 0.23972220049310652
    outer loop
      vertex 3.5664615631103516 1.1588134765625 0
      vertex 3.25 0 2
      vertex 3.75 0 0
    endloop
  endfacet
  facet normal 0.8650260868998021 0.44075286395652763 0.23972230162614128
    outer loop
      vertex 3.0338134765625 2.2041940689086914 0
      vertex 2.629304885864258 1.9103012084960938 2
      vertex 3.5664615631103516 1.1588134765625 0
    endloop
  endfacet
  facet normal 0.6864886050709863 0.6864886050709863 0.23972231897631655
    outer loop
      vertex 1.9103012084960938 2.629304885864258 2
      vertex 3.0338134765625 2.2041940689086914 0
      vertex 2.2041940689086914 3.0338134765625 0
    endloop
  endfacet
  facet normal 0.6864886050709863 0.6864886050709863 0.23972231897631655
    outer loop
      vertex 3.0338134765625 2.2041940689086914 0
      vertex 1.9103012084960938 2.629304885864258 2
      vertex 2.629304885864258 1.9103012084960938 2
    endloop
  endfacet
  facet normal 0.9588886612107208 0.1518738905107645 0.23972245781869428
    outer loop
      vertex 3.5664615631103516 1.1588134765625 0
      vertex 3.090932846069336 1.0043048858642578 2
      vertex 3.25 0 2
    endloop
  endfacet
  facet normal 0.9588888019724261 -0.15187340795092544 0.23972220049310652
    outer loop
      vertex 3.75 0 0
      vertex 3.25 0 2
      vertex 3.5664615631103516 -1.1588134765625 0
    endloop
  endfacet
  facet normal 0.1518738905107645 -0.9588886612107208 0.23972245781869428
    outer loop
      vertex 1.0043048858642578 -3.090932846069336 2
      vertex 0 -3.25 2
      vertex 1.1588134765625 -3.5664615631103516 0
    endloop
  endfacet
  facet normal -0.8650261692369531 -0.44075263447966184 0.2397224264320714
    outer loop
      vertex -3.090932846069336 -1.0043048858642578 2
      vertex -3.5664615631103516 -1.1588134765625 0
      vertex -2.629304885864258 -1.9103012084960938 2
    endloop
  endfacet
  facet normal 0.44075263447966184 -0.8650261692369531 0.2397224264320714
    outer loop
      vertex 1.9103012084960938 -2.629304885864258 2
      vertex 1.0043048858642578 -3.090932846069336 2
      vertex 1.1588134765625 -3.5664615631103516 0
    endloop
  endfacet
  facet normal 0.15187340795092544 0.9588888019724261 0.23972220049310652
    outer loop
      vertex 0 3.75 0
      vertex 0 3.25 2
      vertex 1.1588134765625 3.5664615631103516 0
    endloop
  endfacet
  facet normal -0.9588886612107208 -0.1518738905107645 0.23972245781869428
    outer loop
      vertex -3.25 0 2
      vertex -3.5664615631103516 -1.1588134765625 0
      vertex -3.090932846069336 -1.0043048858642578 2
    endloop
  endfacet
  facet normal 0.44075286395652763 0.8650260868998021 0.23972230162614128
    outer loop
      vertex 2.2041940689086914 3.0338134765625 0
      vertex 1.1588134765625 3.5664615631103516 0
      vertex 1.9103012084960938 2.629304885864258 2
    endloop
  endfacet
  facet normal -0.44075286395652763 0.8650260868998021 0.23972230162614128
    outer loop
      vertex -1.1588134765625 3.5664615631103516 0
      vertex -2.2041940689086914 3.0338134765625 0
      vertex -1.9103012084960938 2.629304885864258 2
    endloop
  endfacet
  facet normal 0.15187340795092544 -0.9588888019724261 0.23972220049310652
    outer loop
      vertex 0 -3.25 2
      vertex 0 -3.75 0
      vertex 1.1588134765625 -3.5664615631103516 0
    endloop
  endfacet
  facet normal -0.15187340795092544 0.9588888019724261 0.23972220049310652
    outer loop
      vertex 0 3.75 0
      vertex -1.1588134765625 3.5664615631103516 0
      vertex 0 3.25 2
    endloop
  endfacet
  facet normal -0.9588888019724261 -0.15187340795092544 0.23972220049310652
    outer loop
      vertex -3.25 0 2
      vertex -3.75 0 0
      vertex -3.5664615631103516 -1.1588134765625 0
    endloop
  endfacet
  facet normal -0.8650260868998021 0.44075286395652763 0.23972230162614128
    outer loop
      vertex -3.0338134765625 2.2041940689086914 0
      vertex -3.5664615631103516 1.1588134765625 0
      vertex -2.629304885864258 1.9103012084960938 2
    endloop
  endfacet
  facet normal -0.44075263447966184 0.8650261692369531 0.2397224264320714
    outer loop
      vertex -1.1588134765625 3.5664615631103516 0
      vertex -1.9103012084960938 2.629304885864258 2
      vertex -1.0043048858642578 3.090932846069336 2
    endloop
  endfacet
  facet normal -0.1518738905107645 0.9588886612107208 0.23972245781869428
    outer loop
      vertex 0 3.25 2
      vertex -1.1588134765625 3.5664615631103516 0
      vertex -1.0043048858642578 3.090932846069336 2
    endloop
  endfacet
  facet normal -0.1518738905107645 -0.9588886612107208 0.23972245781869428
    outer loop
      vertex -1.0043048858642578 -3.090932846069336 2
      vertex -1.1588134765625 -3.5664615631103516 0
      vertex 0 -3.25 2
    endloop
  endfacet
  facet normal -0.44075263447966184 -0.8650261692369531 0.2397224264320714
    outer loop
      vertex -1.0043048858642578 -3.090932846069336 2
      vertex -1.9103012084960938 -2.629304885864258 2
      vertex -1.1588134765625 -3.5664615631103516 0
    endloop
  endfacet
  facet normal -0.44075286395652763 -0.8650260868998021 0.23972230162614128
    outer loop
      vertex -1.9103012084960938 -2.629304885864258 2
      vertex -2.2041940689086914 -3.0338134765625 0
      vertex -1.1588134765625 -3.5664615631103516 0
    endloop
  endfacet
  facet normal -0.6864886050709863 -0.6864886050709863 0.23972231897631655
    outer loop
      vertex -3.0338134765625 -2.2041940689086914 0
      vertex -1.9103012084960938 -2.629304885864258 2
      vertex -2.629304885864258 -1.9103012084960938 2
    endloop
  endfacet
  facet normal -0.6864886050709863 -0.6864886050709863 0.23972231897631655
    outer loop
      vertex -1.9103012084960938 -2.629304885864258 2
      vertex -3.0338134765625 -2.2041940689086914 0
      vertex -2.2041940689086914 -3.0338134765625 0
    endloop
  endfacet
  facet normal 0.8650261692369531 0.44075263447966184 0.2397224264320714
    outer loop
      vertex 3.5664615631103516 1.1588134765625 0
      vertex 2.629304885864258 1.9103012084960938 2
      vertex 3.090932846069336 1.0043048858642578 2
    endloop
  endfacet
  facet normal 0 0 -1
    outer loop
      vertex 1.5 0 0
      vertex 3.75 0 0
      vertex 3.5664615631103516 -1.1588134765625 0
    endloop
  endfacet
  facet normal 0 0 -1
    outer loop
      vertex 1.426584243774414 -0.46352481842041016 0
      vertex 3.5664615631103516 -1.1588134765625 0
      vertex 3.0338134765625 -2.2041940689086914 0
    endloop
  endfacet
  facet normal 0 0 -1
    outer loop
      vertex 3.75 0 0
      vertex 1.5 0 0
      vertex 3.5664615631103516 1.1588134765625 0
    endloop
  endfacet
  facet normal 0 0 -1
    outer loop
      vertex 1.2135248184204102 -0.8816776275634766 0
      vertex 3.0338134765625 -2.2041940689086914 0
      vertex 2.2041940689086914 -3.0338134765625 0
    endloop
  endfacet
  facet normal 0 0 -1
    outer loop
      vertex 1.426584243774414 0.46352481842041016 0
      vertex 3.5664615631103516 1.1588134765625 0
      vertex 1.5 0 0
    endloop
  endfacet
  facet normal 0 0 -1
    outer loop
      vertex 3.5664615631103516 1.1588134765625 0
      vertex 1.426584243774414 0.46352481842041016 0
      vertex 3.0338134765625 2.2041940689086914 0
    endloop
  endfacet
  facet normal 0 0 -1
    outer loop
      vertex 3.5664615631103516 -1.1588134765625 0
      vertex 1.426584243774414 -0.46352481842041016 0
      vertex 1.5 0 0
    endloop
  endfacet
  facet normal 0 0 -1
    outer loop
      vertex 3.0338134765625 -2.2041940689086914 0
      vertex 1.2135248184204102 -0.8816776275634766 0
      vertex 1.426584243774414 -0.46352481842041016 0
    endloop
  endfacet
  facet normal 0 0 -1
    outer loop
      vertex 0.8816776275634766 -1.2135248184204102 0
      vertex 2.2041940689086914 -3.0338134765625 0
      vertex 1.1588134765625 -3.5664615631103516 0
    endloop
  endfacet
  facet normal 0 0 -1
    outer loop
      vertex 2.2041940689086914 -3.0338134765625 0
      vertex 0.8816776275634766 -1.2135248184204102 0
      vertex 1.2135248184204102 -0.8816776275634766 0
    endloop
  endfacet
  facet normal 0 0 -1
    outer loop
      vertex 1.1588134765625 -3.5664615631103516 0
      vertex 0.46352481842041016 -1.426584243774414 0
      vertex 0.8816776275634766 -1.2135248184204102 0
    endloop
  endfacet
  facet normal 0 0 -1
    outer loop
      vertex 0 -3.75 0
      vertex 0.46352481842041016 -1.426584243774414 0
      vertex 1.1588134765625 -3.5664615631103516 0
    endloop
  endfacet
  facet normal 0 0 -1
    outer loop
      vertex 0 -3.75 0
      vertex 0 -1.5 0
      vertex 0.46352481842041016 -1.426584243774414 0
    endloop
  endfacet
  facet normal 0 0 -1
    outer loop
      vertex 0 -3.75 0
      vertex -0.46352481842041016 -1.426584243774414 0
      vertex 0 -1.5 0
    endloop
  endfacet
  facet normal 0 0 -1
    outer loop
      vertex -1.1588134765625 -3.5664615631103516 0
      vertex -0.46352481842041016 -1.426584243774414 0
      vertex 0 -3.75 0
    endloop
  endfacet
  facet normal 0 0 -1
    outer loop
      vertex -0.46352481842041016 -1.426584243774414 0
      vertex -1.1588134765625 -3.5664615631103516 0
      vertex -0.8816776275634766 -1.2135248184204102 0
    endloop
  endfacet
  facet normal 0 0 -1
    outer loop
      vertex -2.2041940689086914 -3.0338134765625 0
      vertex -0.8816776275634766 -1.2135248184204102 0
      vertex -1.1588134765625 -3.5664615631103516 0
    endloop
  endfacet
  facet normal 0 0 -1
    outer loop
      vertex -0.8816776275634766 -1.2135248184204102 0
      vertex -2.2041940689086914 -3.0338134765625 0
      vertex -1.2135248184204102 -0.8816776275634766 0
    endloop
  endfacet
  facet normal 0 0 -1
    outer loop
      vertex -3.0338134765625 -2.2041940689086914 0
      vertex -1.2135248184204102 -0.8816776275634766 0
      vertex -2.2041940689086914 -3.0338134765625 0
    endloop
  endfacet
  facet normal 0 0 -1
    outer loop
      vertex -1.2135248184204102 -0.8816776275634766 0
      vertex -3.0338134765625 -2.2041940689086914 0
      vertex -1.426584243774414 -0.46352481842041016 0
    endloop
  endfacet
  facet normal 0 0 -1
    outer loop
      vertex 1.2135248184204102 0.8816776275634766 0
      vertex 3.0338134765625 2.2041940689086914 0
      vertex 1.426584243774414 0.46352481842041016 0
    endloop
  endfacet
  facet normal 0 0 -1
    outer loop
      vertex 3.0338134765625 2.2041940689086914 0
      vertex 1.2135248184204102 0.8816776275634766 0
      vertex 2.2041940689086914 3.0338134765625 0
    endloop
  endfacet
  facet normal 0 0 -1
    outer loop
      vertex 0.8816776275634766 1.2135248184204102 0
      vertex 2.2041940689086914 3.0338134765625 0
      vertex 1.2135248184204102 0.8816776275634766 0
    endloop
  endfacet
  facet normal 0 0 -1
    outer loop
      vertex 2.2041940689086914 3.0338134765625 0
      vertex 0.8816776275634766 1.2135248184204102 0
      vertex 1.1588134765625 3.5664615631103516 0
    endloop
  endfacet
  facet normal 0 0 -1
    outer loop
      vertex 0.46352481842041016 1.426584243774414 0
      vertex 1.1588134765625 3.5664615631103516 0
      vertex 0.8816776275634766 1.2135248184204102 0
    endloop
  endfacet
  facet normal 0 0 -1
    outer loop
      vertex 0 1.5 0
      vertex 1.1588134765625 3.5664615631103516 0
      vertex 0.46352481842041016 1.426584243774414 0
    endloop
  endfacet
  facet normal 0 0 -1
    outer loop
      vertex 0 1.5 0
      vertex 0 3.75 0
      vertex 1.1588134765625 3.5664615631103516 0
    endloop
  endfacet
  facet normal 0 0 -1
    outer loop
      vertex -0.46352481842041016 1.426584243774414 0
      vertex 0 3.75 0
      vertex 0 1.5 0
    endloop
  endfacet
  facet normal 0 0 -1
    outer loop
      vertex -1.1588134765625 3.5664615631103516 0
      vertex -0.46352481842041016 1.426584243774414 0
      vertex -0.8816776275634766 1.2135248184204102 0
    endloop
  endfacet
  facet normal 0 0 -1
    outer loop
      vertex -0.46352481842041016 1.426584243774414 0
      vertex -1.1588134765625 3.5664615631103516 0
      vertex 0 3.75 0
    endloop
  endfacet
  facet normal 0 0 -1
    outer loop
      vertex -2.2041940689086914 3.0338134765625 0
      vertex -0.8816776275634766 1.2135248184204102 0
      vertex -1.2135248184204102 0.8816776275634766 0
    endloop
  endfacet
  facet normal 0 0 -1
    outer loop
      vertex -3.0338134765625 2.2041940689086914 0
      vertex -1.2135248184204102 0.8816776275634766 0
      vertex -1.426584243774414 0.46352481842041016 0
    endloop
  endfacet
  facet normal 0 0 -1
    outer loop
      vertex -3.5664615631103516 1.1588134765625 0
      vertex -1.426584243774414 0.46352481842041016 0
      vertex -1.5 0 0
    endloop
  endfacet
  facet normal 0 0 -1
    outer loop
      vertex -3.5664615631103516 -1.1588134765625 0
      vertex -1.426584243774414 -0.46352481842041016 0
      vertex -3.0338134765625 -2.2041940689086914 0
    endloop
  endfacet
  facet normal 0 0 -1
    outer loop
      vertex -0.8816776275634766 1.2135248184204102 0
      vertex -2.2041940689086914 3.0338134765625 0
      vertex -1.1588134765625 3.5664615631103516 0
    endloop
  endfacet
  facet normal 0 0 -1
    outer loop
      vertex -1.426584243774414 -0.46352481842041016 0
      vertex -3.5664615631103516 -1.1588134765625 0
      vertex -1.5 0 0
    endloop
  endfacet
  facet normal 0 0 -1
    outer loop
      vertex -1.2135248184204102 0.8816776275634766 0
      vertex -3.0338134765625 2.2041940689086914 0
      vertex -2.2041940689086914 3.0338134765625 0
    endloop
  endfacet
  facet normal 0 0 -1
    outer loop
      vertex -3.75 0 0
      vertex -1.5 0 0
      vertex -3.5664615631103516 -1.1588134765625 0
    endloop
  endfacet
  facet normal 0 0 -1
    outer loop
      vertex -1.426584243774414 0.46352481842041016 0
      vertex -3.5664615631103516 1.1588134765625 0
      vertex -3.0338134765625 2.2041940689086914 0
    endloop
  endfacet
  facet normal 0 0 -1
    outer loop
      vertex -1.5 0 0
      vertex -3.75 0 0
      vertex -3.5664615631103516 1.1588134765625 0
    endloop
  endfacet
  facet normal 0.8650260868998021 -0.44075286395652763 0.23972230162614128
    outer loop
      vertex 3.5664615631103516 -1.1588134765625 0
      vertex 2.629304885864258 -1.9103012084960938 2
      vertex 3.0338134765625 -2.2041940689086914 0
    endloop
  endfacet
  facet normal -0.15187340795092544 -0.9588888019724261 0.23972220049310652
    outer loop
      vertex 0 -3.25 2
      vertex -1.1588134765625 -3.5664615631103516 0
      vertex 0 -3.75 0
    endloop
  endfacet
  facet normal -0.9588888019724261 0.15187340795092544 0.23972220049310652
    outer loop
      vertex -3.5664615631103516 1.1588134765625 0
      vertex -3.75 0 0
      vertex -3.25 0 2
    endloop
  endfacet
  facet normal -0.9588886612107208 0.1518738905107645 0.23972245781869428
    outer loop
      vertex -3.090932846069336 1.0043048858642578 2
      vertex -3.5664615631103516 1.1588134765625 0
      vertex -3.25 0 2
    endloop
  endfacet
  facet normal 0.6864886050709863 -0.6864886050709863 0.23972231897631655
    outer loop
      vertex 1.9103012084960938 -2.629304885864258 2
      vertex 3.0338134765625 -2.2041940689086914 0
      vertex 2.629304885864258 -1.9103012084960938 2
    endloop
  endfacet
  facet normal 0.6864886050709863 -0.6864886050709863 0.23972231897631655
    outer loop
      vertex 3.0338134765625 -2.2041940689086914 0
      vertex 1.9103012084960938 -2.629304885864258 2
      vertex 2.2041940689086914 -3.0338134765625 0
    endloop
  endfacet
  facet normal 0.1518738905107645 0.9588886612107208 0.23972245781869428
    outer loop
      vertex 1.1588134765625 3.5664615631103516 0
      vertex 0 3.25 2
      vertex 1.0043048858642578 3.090932846069336 2
    endloop
  endfacet
  facet normal 0.8650261692369531 -0.44075263447966184 0.2397224264320714
    outer loop
      vertex 3.090932846069336 -1.0043048858642578 2
      vertex 2.629304885864258 -1.9103012084960938 2
      vertex 3.5664615631103516 -1.1588134765625 0
    endloop
  endfacet
  facet normal -0.8650260868998021 -0.44075286395652763 0.23972230162614128
    outer loop
      vertex -2.629304885864258 -1.9103012084960938 2
      vertex -3.5664615631103516 -1.1588134765625 0
      vertex -3.0338134765625 -2.2041940689086914 0
    endloop
  endfacet
  facet normal -0.8650261692369531 0.44075263447966184 0.2397224264320714
    outer loop
      vertex -2.629304885864258 1.9103012084960938 2
      vertex -3.5664615631103516 1.1588134765625 0
      vertex -3.090932846069336 1.0043048858642578 2
    endloop
  endfacet
  facet normal -0.6864886050709863 0.6864886050709863 0.23972231897631655
    outer loop
      vertex -3.0338134765625 2.2041940689086914 0
      vertex -1.9103012084960938 2.629304885864258 2
      vertex -2.2041940689086914 3.0338134765625 0
    endloop
  endfacet
  facet normal -0.6864886050709863 0.6864886050709863 0.23972231897631655
    outer loop
      vertex -1.9103012084960938 2.629304885864258 2
      vertex -3.0338134765625 2.2041940689086914 0
      vertex -2.629304885864258 1.9103012084960938 2
    endloop
  endfacet
  facet normal 0.44075286395652763 -0.8650260868998021 0.23972230162614128
    outer loop
      vertex 1.9103012084960938 -2.629304885864258 2
      vertex 1.1588134765625 -3.5664615631103516 0
      vertex 2.2041940689086914 -3.0338134765625 0
    endloop
  endfacet
  facet normal 0.9588886612107208 -0.1518738905107645 0.23972245781869428
    outer loop
      vertex 3.25 0 2
      vertex 3.090932846069336 -1.0043048858642578 2
      vertex 3.5664615631103516 -1.1588134765625 0
    endloop
  endfacet
  facet normal 0.44075263447966184 0.8650261692369531 0.2397224264320714
    outer loop
      vertex 1.1588134765625 3.5664615631103516 0
      vertex 1.0043048858642578 3.090932846069336 2
      vertex 1.9103012084960938 2.629304885864258 2
    endloop
  endfacet
  facet normal 0 0 -1
    outer loop
      vertex 3.25 0 2
      vertex 3.75 0 2
      vertex 3.5664615631103516 -1.1588134765625 2
    endloop
  endfacet
  facet normal 0 0 -1
    outer loop
      vertex 3.75 0 2
      vertex 3.25 0 2
      vertex 3.5664615631103516 1.1588134765625 2
    endloop
  endfacet
  facet normal 0 0 -1
    outer loop
      vertex 3.5664615631103516 -1.1588134765625 2
      vertex 3.090932846069336 -1.0043048858642578 2
      vertex 3.25 0 2
    endloop
  endfacet
  facet normal 0 0 -1
    outer loop
      vertex 3.0338134765625 -2.2041940689086914 2
      vertex 3.090932846069336 -1.0043048858642578 2
      vertex 3.5664615631103516 -1.1588134765625 2
    endloop
  endfacet
  facet normal 0 0 -1
    outer loop
      vertex 3.0338134765625 -2.2041940689086914 2
      vertex 2.629304885864258 -1.9103012084960938 2
      vertex 3.090932846069336 -1.0043048858642578 2
    endloop
  endfacet
  facet normal 0 0 -1
    outer loop
      vertex 2.2041940689086914 -3.0338134765625 2
      vertex 2.629304885864258 -1.9103012084960938 2
      vertex 3.0338134765625 -2.2041940689086914 2
    endloop
  endfacet
  facet normal 0 0 -1
    outer loop
      vertex 2.2041940689086914 -3.0338134765625 2
      vertex 1.9103012084960938 -2.629304885864258 2
      vertex 2.629304885864258 -1.9103012084960938 2
    endloop
  endfacet
  facet normal 0 0 -1
    outer loop
      vertex 1.1588134765625 -3.5664615631103516 2
      vertex 1.9103012084960938 -2.629304885864258 2
      vertex 2.2041940689086914 -3.0338134765625 2
    endloop
  endfacet
  facet normal 0 0 -1
    outer loop
      vertex 1.1588134765625 -3.5664615631103516 2
      vertex 1.0043048858642578 -3.090932846069336 2
      vertex 1.9103012084960938 -2.629304885864258 2
    endloop
  endfacet
  facet normal 0 0 -1
    outer loop
      vertex 0 -3.75 2
      vertex 1.0043048858642578 -3.090932846069336 2
      vertex 1.1588134765625 -3.5664615631103516 2
    endloop
  endfacet
  facet normal 0 0 -1
    outer loop
      vertex 0 -3.75 2
      vertex 0 -3.25 2
      vertex 1.0043048858642578 -3.090932846069336 2
    endloop
  endfacet
  facet normal 0 0 -1
    outer loop
      vertex 0 -3.75 2
      vertex -1.0043048858642578 -3.090932846069336 2
      vertex 0 -3.25 2
    endloop
  endfacet
  facet normal 0 0 -1
    outer loop
      vertex -1.1588134765625 -3.5664615631103516 2
      vertex -1.0043048858642578 -3.090932846069336 2
      vertex 0 -3.75 2
    endloop
  endfacet
  facet normal 0 0 -1
    outer loop
      vertex -1.1588134765625 -3.5664615631103516 2
      vertex -1.9103012084960938 -2.629304885864258 2
      vertex -1.0043048858642578 -3.090932846069336 2
    endloop
  endfacet
  facet normal 0 0 -1
    outer loop
      vertex -2.2041940689086914 -3.0338134765625 2
      vertex -1.9103012084960938 -2.629304885864258 2
      vertex -1.1588134765625 -3.5664615631103516 2
    endloop
  endfacet
  facet normal 0 0 -1
    outer loop
      vertex -2.2041940689086914 -3.0338134765625 2
      vertex -2.629304885864258 -1.9103012084960938 2
      vertex -1.9103012084960938 -2.629304885864258 2
    endloop
  endfacet
  facet normal 0 0 -1
    outer loop
      vertex -3.0338134765625 -2.2041940689086914 2
      vertex -2.629304885864258 -1.9103012084960938 2
      vertex -2.2041940689086914 -3.0338134765625 2
    endloop
  endfacet
  facet normal 0 0 -1
    outer loop
      vertex -3.0338134765625 -2.2041940689086914 2
      vertex -3.090932846069336 -1.0043048858642578 2
      vertex -2.629304885864258 -1.9103012084960938 2
    endloop
  endfacet
  facet normal 0 0 -1
    outer loop
      vertex -3.5664615631103516 -1.1588134765625 2
      vertex -3.090932846069336 -1.0043048858642578 2
      vertex -3.0338134765625 -2.2041940689086914 2
    endloop
  endfacet
  facet normal 0 0 -1
    outer loop
      vertex -3.090932846069336 -1.0043048858642578 2
      vertex -3.5664615631103516 -1.1588134765625 2
      vertex -3.25 0 2
    endloop
  endfacet
  facet normal 0 0 -1
    outer loop
      vertex 3.090932846069336 1.0043048858642578 2
      vertex 3.5664615631103516 1.1588134765625 2
      vertex 3.25 0 2
    endloop
  endfacet
  facet normal 0 0 -1
    outer loop
      vertex 3.090932846069336 1.0043048858642578 2
      vertex 3.0338134765625 2.2041940689086914 2
      vertex 3.5664615631103516 1.1588134765625 2
    endloop
  endfacet
  facet normal 0 0 -1
    outer loop
      vertex 2.629304885864258 1.9103012084960938 2
      vertex 3.0338134765625 2.2041940689086914 2
      vertex 3.090932846069336 1.0043048858642578 2
    endloop
  endfacet
  facet normal 0 0 -1
    outer loop
      vertex 2.629304885864258 1.9103012084960938 2
      vertex 2.2041940689086914 3.0338134765625 2
      vertex 3.0338134765625 2.2041940689086914 2
    endloop
  endfacet
  facet normal 0 0 -1
    outer loop
      vertex 1.9103012084960938 2.629304885864258 2
      vertex 2.2041940689086914 3.0338134765625 2
      vertex 2.629304885864258 1.9103012084960938 2
    endloop
  endfacet
  facet normal 0 0 -1
    outer loop
      vertex 1.9103012084960938 2.629304885864258 2
      vertex 1.1588134765625 3.5664615631103516 2
      vertex 2.2041940689086914 3.0338134765625 2
    endloop
  endfacet
  facet normal 0 0 -1
    outer loop
      vertex 1.0043048858642578 3.090932846069336 2
      vertex 1.1588134765625 3.5664615631103516 2
      vertex 1.9103012084960938 2.629304885864258 2
    endloop
  endfacet
  facet normal 0 0 -1
    outer loop
      vertex 0 3.25 2
      vertex 1.1588134765625 3.5664615631103516 2
      vertex 1.0043048858642578 3.090932846069336 2
    endloop
  endfacet
  facet normal 0 0 -1
    outer loop
      vertex 0 3.25 2
      vertex 0 3.75 2
      vertex 1.1588134765625 3.5664615631103516 2
    endloop
  endfacet
  facet normal 0 0 -1
    outer loop
      vertex -1.0043048858642578 3.090932846069336 2
      vertex 0 3.75 2
      vertex 0 3.25 2
    endloop
  endfacet
  facet normal 0 0 -1
    outer loop
      vertex -1.0043048858642578 3.090932846069336 2
      vertex -1.1588134765625 3.5664615631103516 2
      vertex 0 3.75 2
    endloop
  endfacet
  facet normal 0 0 -1
    outer loop
      vertex -1.9103012084960938 2.629304885864258 2
      vertex -1.1588134765625 3.5664615631103516 2
      vertex -1.0043048858642578 3.090932846069336 2
    endloop
  endfacet
  facet normal 0 0 -1
    outer loop
      vertex -1.9103012084960938 2.629304885864258 2
      vertex -2.2041940689086914 3.0338134765625 2
      vertex -1.1588134765625 3.5664615631103516 2
    endloop
  endfacet
  facet normal 0 0 -1
    outer loop
      vertex -2.629304885864258 1.9103012084960938 2
      vertex -2.2041940689086914 3.0338134765625 2
      vertex -1.9103012084960938 2.629304885864258 2
    endloop
  endfacet
  facet normal 0 0 -1
    outer loop
      vertex -2.629304885864258 1.9103012084960938 2
      vertex -3.0338134765625 2.2041940689086914 2
      vertex -2.2041940689086914 3.0338134765625 2
    endloop
  endfacet
  facet normal 0 0 -1
    outer loop
      vertex -3.090932846069336 1.0043048858642578 2
      vertex -3.0338134765625 2.2041940689086914 2
      vertex -2.629304885864258 1.9103012084960938 2
    endloop
  endfacet
  facet normal 0 0 -1
    outer loop
      vertex -3.5664615631103516 1.1588134765625 2
      vertex -3.090932846069336 1.0043048858642578 2
      vertex -3.25 0 2
    endloop
  endfacet
  facet normal 0 0 -1
    outer loop
      vertex -3.75 0 2
      vertex -3.25 0 2
      vertex -3.5664615631103516 -1.1588134765625 2
    endloop
  endfacet
  facet normal 0 0 -1
    outer loop
      vertex -3.090932846069336 1.0043048858642578 2
      vertex -3.5664615631103516 1.1588134765625 2
      vertex -3.0338134765625 2.2041940689086914 2
    endloop
  endfacet
  facet normal 0 0 -1
    outer loop
      vertex -3.25 0 2
      vertex -3.75 0 2
      vertex -3.5664615631103516 1.1588134765625 2
    endloop
  endfacet
  facet normal 0.9588888019724261 0.15187340795092544 0.23972220049310652
    outer loop
      vertex 3.5664615631103516 1.1588134765625 2
      vertex 3.25 0 4
      vertex 3.75 0 2
    endloop
  endfacet
  facet normal 0.6864886050709863 -0.6864886050709863 0.23972231897631655
    outer loop
      vertex 1.9103012084960938 -2.629304885864258 4
      vertex 3.0338134765625 -2.2041940689086914 2
      vertex 2.629304885864258 -1.9103012084960938 4
    endloop
  endfacet
  facet normal 0.6864886050709863 -0.6864886050709863 0.23972231897631655
    outer loop
      vertex 3.0338134765625 -2.2041940689086914 2
      vertex 1.9103012084960938 -2.629304885864258 4
      vertex 2.2041940689086914 -3.0338134765625 2
    endloop
  endfacet
  facet normal -0.9588888019724261 -0.15187340795092544 0.23972220049310652
    outer loop
      vertex -3.25 0 4
      vertex -3.75 0 2
      vertex -3.5664615631103516 -1.1588134765625 2
    endloop
  endfacet
  facet normal 0.9588886612107208 0.1518738905107645 0.23972245781869428
    outer loop
      vertex 3.5664615631103516 1.1588134765625 2
      vertex 3.090932846069336 1.0043048858642578 4
      vertex 3.25 0 4
    endloop
  endfacet
  facet normal -0.15187340795092544 0.9588888019724261 0.23972220049310652
    outer loop
      vertex 0 3.75 2
      vertex -1.1588134765625 3.5664615631103516 2
      vertex 0 3.25 4
    endloop
  endfacet
  facet normal 0.1518738905107645 0.9588886612107208 0.23972245781869428
    outer loop
      vertex 1.1588134765625 3.5664615631103516 2
      vertex 0 3.25 4
      vertex 1.0043048858642578 3.090932846069336 4
    endloop
  endfacet
  facet normal 0.15187340795092544 0.9588888019724261 0.23972220049310652
    outer loop
      vertex 0 3.75 2
      vertex 0 3.25 4
      vertex 1.1588134765625 3.5664615631103516 2
    endloop
  endfacet
  facet normal -0.44075263447966184 0.8650261692369531 0.2397224264320714
    outer loop
      vertex -1.1588134765625 3.5664615631103516 2
      vertex -1.9103012084960938 2.629304885864258 4
      vertex -1.0043048858642578 3.090932846069336 4
    endloop
  endfacet
  facet normal 0.44075286395652763 0.8650260868998021 0.23972230162614128
    outer loop
      vertex 2.2041940689086914 3.0338134765625 2
      vertex 1.1588134765625 3.5664615631103516 2
      vertex 1.9103012084960938 2.629304885864258 4
    endloop
  endfacet
  facet normal -0.1518738905107645 -0.9588886612107208 0.23972245781869428
    outer loop
      vertex -1.0043048858642578 -3.090932846069336 4
      vertex -1.1588134765625 -3.5664615631103516 2
      vertex 0 -3.25 4
    endloop
  endfacet
  facet normal 0.15187340795092544 -0.9588888019724261 0.23972220049310652
    outer loop
      vertex 0 -3.25 4
      vertex 0 -3.75 2
      vertex 1.1588134765625 -3.5664615631103516 2
    endloop
  endfacet
  facet normal -0.6864886050709863 0.6864886050709863 0.23972231897631655
    outer loop
      vertex -3.0338134765625 2.2041940689086914 2
      vertex -1.9103012084960938 2.629304885864258 4
      vertex -2.2041940689086914 3.0338134765625 2
    endloop
  endfacet
  facet normal -0.6864886050709863 0.6864886050709863 0.23972231897631655
    outer loop
      vertex -1.9103012084960938 2.629304885864258 4
      vertex -3.0338134765625 2.2041940689086914 2
      vertex -2.629304885864258 1.9103012084960938 4
    endloop
  endfacet
  facet normal -0.9588886612107208 0.1518738905107645 0.23972245781869428
    outer loop
      vertex -3.090932846069336 1.0043048858642578 4
      vertex -3.5664615631103516 1.1588134765625 2
      vertex -3.25 0 4
    endloop
  endfacet
  facet normal -0.9588888019724261 0.15187340795092544 0.23972220049310652
    outer loop
      vertex -3.5664615631103516 1.1588134765625 2
      vertex -3.75 0 2
      vertex -3.25 0 4
    endloop
  endfacet
  facet normal 0.1518738905107645 -0.9588886612107208 0.23972245781869428
    outer loop
      vertex 1.0043048858642578 -3.090932846069336 4
      vertex 0 -3.25 4
      vertex 1.1588134765625 -3.5664615631103516 2
    endloop
  endfacet
  facet normal -0.8650260868998021 0.44075286395652763 0.23972230162614128
    outer loop
      vertex -3.0338134765625 2.2041940689086914 2
      vertex -3.5664615631103516 1.1588134765625 2
      vertex -2.629304885864258 1.9103012084960938 4
    endloop
  endfacet
  facet normal 0.8650260868998021 -0.44075286395652763 0.23972230162614128
    outer loop
      vertex 3.5664615631103516 -1.1588134765625 2
      vertex 2.629304885864258 -1.9103012084960938 4
      vertex 3.0338134765625 -2.2041940689086914 2
    endloop
  endfacet
  facet normal -0.44075286395652763 0.8650260868998021 0.23972230162614128
    outer loop
      vertex -1.1588134765625 3.5664615631103516 2
      vertex -2.2041940689086914 3.0338134765625 2
      vertex -1.9103012084960938 2.629304885864258 4
    endloop
  endfacet
  facet normal 0.8650260868998021 0.44075286395652763 0.23972230162614128
    outer loop
      vertex 3.0338134765625 2.2041940689086914 2
      vertex 2.629304885864258 1.9103012084960938 4
      vertex 3.5664615631103516 1.1588134765625 2
    endloop
  endfacet
  facet normal 0.8650261692369531 0.44075263447966184 0.2397224264320714
    outer loop
      vertex 3.5664615631103516 1.1588134765625 2
      vertex 2.629304885864258 1.9103012084960938 4
      vertex 3.090932846069336 1.0043048858642578 4
    endloop
  endfacet
  facet normal -0.9588886612107208 -0.1518738905107645 0.23972245781869428
    outer loop
      vertex -3.25 0 4
      vertex -3.5664615631103516 -1.1588134765625 2
      vertex -3.090932846069336 -1.0043048858642578 4
    endloop
  endfacet
  facet normal 0.9588888019724261 -0.15187340795092544 0.23972220049310652
    outer loop
      vertex 3.75 0 2
      vertex 3.25 0 4
      vertex 3.5664615631103516 -1.1588134765625 2
    endloop
  endfacet
  facet normal -0.15187340795092544 -0.9588888019724261 0.23972220049310652
    outer loop
      vertex 0 -3.25 4
      vertex -1.1588134765625 -3.5664615631103516 2
      vertex 0 -3.75 2
    endloop
  endfacet
  facet normal 0.6864886050709863 0.6864886050709863 0.23972231897631655
    outer loop
      vertex 1.9103012084960938 2.629304885864258 4
      vertex 3.0338134765625 2.2041940689086914 2
      vertex 2.2041940689086914 3.0338134765625 2
    endloop
  endfacet
  facet normal 0.6864886050709863 0.6864886050709863 0.23972231897631655
    outer loop
      vertex 3.0338134765625 2.2041940689086914 2
      vertex 1.9103012084960938 2.629304885864258 4
      vertex 2.629304885864258 1.9103012084960938 4
    endloop
  endfacet
  facet normal -0.1518738905107645 0.9588886612107208 0.23972245781869428
    outer loop
      vertex 0 3.25 4
      vertex -1.1588134765625 3.5664615631103516 2
      vertex -1.0043048858642578 3.090932846069336 4
    endloop
  endfacet
  facet normal 0.44075263447966184 0.8650261692369531 0.2397224264320714
    outer loop
      vertex 1.1588134765625 3.5664615631103516 2
      vertex 1.0043048858642578 3.090932846069336 4
      vertex 1.9103012084960938 2.629304885864258 4
    endloop
  endfacet
  facet normal -0.8650260868998021 -0.44075286395652763 0.23972230162614128
    outer loop
      vertex -2.629304885864258 -1.9103012084960938 4
      vertex -3.5664615631103516 -1.1588134765625 2
      vertex -3.0338134765625 -2.2041940689086914 2
    endloop
  endfacet
  facet normal -0.8650261692369531 -0.44075263447966184 0.2397224264320714
    outer loop
      vertex -3.090932846069336 -1.0043048858642578 4
      vertex -3.5664615631103516 -1.1588134765625 2
      vertex -2.629304885864258 -1.9103012084960938 4
    endloop
  endfacet
  facet normal -0.44075286395652763 -0.8650260868998021 0.23972230162614128
    outer loop
      vertex -1.9103012084960938 -2.629304885864258 4
      vertex -2.2041940689086914 -3.0338134765625 2
      vertex -1.1588134765625 -3.5664615631103516 2
    endloop
  endfacet
  facet normal -0.6864886050709863 -0.6864886050709863 0.23972231897631655
    outer loop
      vertex -3.0338134765625 -2.2041940689086914 2
      vertex -1.9103012084960938 -2.629304885864258 4
      vertex -2.629304885864258 -1.9103012084960938 4
    endloop
  endfacet
  facet normal -0.6864886050709863 -0.6864886050709863 0.23972231897631655
    outer loop
      vertex -1.9103012084960938 -2.629304885864258 4
      vertex -3.0338134765625 -2.2041940689086914 2
      vertex -2.2041940689086914 -3.0338134765625 2
    endloop
  endfacet
  facet normal 0.8650261692369531 -0.44075263447966184 0.2397224264320714
    outer loop
      vertex 3.090932846069336 -1.0043048858642578 4
      vertex 2.629304885864258 -1.9103012084960938 4
      vertex 3.5664615631103516 -1.1588134765625 2
    endloop
  endfacet
  facet normal 0.44075263447966184 -0.8650261692369531 0.2397224264320714
    outer loop
      vertex 1.9103012084960938 -2.629304885864258 4
      vertex 1.0043048858642578 -3.090932846069336 4
      vertex 1.1588134765625 -3.5664615631103516 2
    endloop
  endfacet
  facet normal -0.8650261692369531 0.44075263447966184 0.2397224264320714
    outer loop
      vertex -2.629304885864258 1.9103012084960938 4
      vertex -3.5664615631103516 1.1588134765625 2
      vertex -3.090932846069336 1.0043048858642578 4
    endloop
  endfacet
  facet normal 0.44075286395652763 -0.8650260868998021 0.23972230162614128
    outer loop
      vertex 1.9103012084960938 -2.629304885864258 4
      vertex 1.1588134765625 -3.5664615631103516 2
      vertex 2.2041940689086914 -3.0338134765625 2
    endloop
  endfacet
  facet normal 0.9588886612107208 -0.1518738905107645 0.23972245781869428
    outer loop
      vertex 3.25 0 4
      vertex 3.090932846069336 -1.0043048858642578 4
      vertex 3.5664615631103516 -1.1588134765625 2
    endloop
  endfacet
  facet normal 0 0 -1
    outer loop
      vertex 3.25 0 4
      vertex 3.75 0 4
      vertex 3.5664615631103516 -1.1588134765625 4
    endloop
  endfacet
  facet normal 0 0 -1
    outer loop
      vertex 3.75 0 4
      vertex 3.25 0 4
      vertex 3.5664615631103516 1.1588134765625 4
    endloop
  endfacet
  facet normal 0 0 -1
    outer loop
      vertex 3.5664615631103516 -1.1588134765625 4
      vertex 3.090932846069336 -1.0043048858642578 4
      vertex 3.25 0 4
    endloop
  endfacet
  facet normal 0 0 -1
    outer loop
      vertex 3.0338134765625 -2.2041940689086914 4
      vertex 3.090932846069336 -1.0043048858642578 4
      vertex 3.5664615631103516 -1.1588134765625 4
    endloop
  endfacet
  facet normal 0 0 -1
    outer loop
      vertex 3.0338134765625 -2.2041940689086914 4
      vertex 2.629304885864258 -1.9103012084960938 4
      vertex 3.090932846069336 -1.0043048858642578 4
    endloop
  endfacet
  facet normal 0 0 -1
    outer loop
      vertex 2.2041940689086914 -3.0338134765625 4
      vertex 2.629304885864258 -1.9103012084960938 4
      vertex 3.0338134765625 -2.2041940689086914 4
    endloop
  endfacet
  facet normal 0 0 -1
    outer loop
      vertex 2.2041940689086914 -3.0338134765625 4
      vertex 1.9103012084960938 -2.629304885864258 4
      vertex 2.629304885864258 -1.9103012084960938 4
    endloop
  endfacet
  facet normal 0 0 -1
    outer loop
      vertex 1.1588134765625 -3.5664615631103516 4
      vertex 1.9103012084960938 -2.629304885864258 4
      vertex 2.2041940689086914 -3.0338134765625 4
    endloop
  endfacet
  facet normal 0 0 -1
    outer loop
      vertex 1.1588134765625 -3.5664615631103516 4
      vertex 1.0043048858642578 -3.090932846069336 4
      vertex 1.9103012084960938 -2.629304885864258 4
    endloop
  endfacet
  facet normal 0 0 -1
    outer loop
      vertex 0 -3.75 4
      vertex 1.0043048858642578 -3.090932846069336 4
      vertex 1.1588134765625 -3.5664615631103516 4
    endloop
  endfacet
  facet normal 0 0 -1
    outer loop
      vertex 0 -3.75 4
      vertex 0 -3.25 4
      vertex 1.0043048858642578 -3.090932846069336 4
    endloop
  endfacet
  facet normal 0 0 -1
    outer loop
      vertex 0 -3.75 4
      vertex -1.0043048858642578 -3.090932846069336 4
      vertex 0 -3.25 4
    endloop
  endfacet
  facet normal 0 0 -1
    outer loop
      vertex -1.1588134765625 -3.5664615631103516 4
      vertex -1.0043048858642578 -3.090932846069336 4
      vertex 0 -3.75 4
    endloop
  endfacet
  facet normal 0 0 -1
    outer loop
      vertex -1.1588134765625 -3.5664615631103516 4
      vertex -1.9103012084960938 -2.629304885864258 4
      vertex -1.0043048858642578 -3.090932846069336 4
    endloop
  endfacet
  facet normal 0 0 -1
    outer loop
      vertex -2.2041940689086914 -3.0338134765625 4
      vertex -1.9103012084960938 -2.629304885864258 4
      vertex -1.1588134765625 -3.5664615631103516 4
    endloop
  endfacet
  facet normal 0 0 -1
    outer loop
      vertex -2.2041940689086914 -3.0338134765625 4
      vertex -2.629304885864258 -1.9103012084960938 4
      vertex -1.9103012084960938 -2.629304885864258 4
    endloop
  endfacet
  facet normal 0 0 -1
    outer loop
      vertex -3.0338134765625 -2.2041940689086914 4
      vertex -2.629304885864258 -1.9103012084960938 4
      vertex -2.2041940689086914 -3.0338134765625 4
    endloop
  endfacet
  facet normal 0 0 -1
    outer loop
      vertex -3.0338134765625 -2.2041940689086914 4
      vertex -3.090932846069336 -1.0043048858642578 4
      vertex -2.629304885864258 -1.9103012084960938 4
    endloop
  endfacet
  facet normal 0 0 -1
    outer loop
      vertex -3.5664615631103516 -1.1588134765625 4
      vertex -3.090932846069336 -1.0043048858642578 4
      vertex -3.0338134765625 -2.2041940689086914 4
    endloop
  endfacet
  facet normal 0 0 -1
    outer loop
      vertex -3.090932846069336 -1.0043048858642578 4
      vertex -3.5664615631103516 -1.1588134765625 4
      vertex -3.25 0 4
    endloop
  endfacet
  facet normal 0 0 -1
    outer loop
      vertex 3.090932846069336 1.0043048858642578 4
      vertex 3.5664615631103516 1.1588134765625 4
      vertex 3.25 0 4
    endloop
  endfacet
  facet normal 0 0 -1
    outer loop
      vertex 3.090932846069336 1.0043048858642578 4
      vertex 3.0338134765625 2.2041940689086914 4
      vertex 3.5664615631103516 1.1588134765625 4
    endloop
  endfacet
  facet normal 0 0 -1
    outer loop
      vertex 2.629304885864258 1.9103012084960938 4
      vertex 3.0338134765625 2.2041940689086914 4
      vertex 3.090932846069336 1.0043048858642578 4
    endloop
  endfacet
  facet normal 0 0 -1
    outer loop
      vertex 2.629304885864258 1.9103012084960938 4
      vertex 2.2041940689086914 3.0338134765625 4
      vertex 3.0338134765625 2.2041940689086914 4
    endloop
  endfacet
  facet normal 0 0 -1
    outer loop
      vertex 1.9103012084960938 2.629304885864258 4
      vertex 2.2041940689086914 3.0338134765625 4
      vertex 2.629304885864258 1.9103012084960938 4
    endloop
  endfacet
  facet normal 0 0 -1
    outer loop
      vertex 1.9103012084960938 2.629304885864258 4
      vertex 1.1588134765625 3.5664615631103516 4
      vertex 2.2041940689086914 3.0338134765625 4
    endloop
  endfacet
  facet normal 0 0 -1
    outer loop
      vertex 1.0043048858642578 3.090932846069336 4
      vertex 1.1588134765625 3.5664615631103516 4
      vertex 1.9103012084960938 2.629304885864258 4
    endloop
  endfacet
  facet normal 0 0 -1
    outer loop
      vertex 0 3.25 4
      vertex 1.1588134765625 3.5664615631103516 4
      vertex 1.0043048858642578 3.090932846069336 4
    endloop
  endfacet
  facet normal 0 0 -1
    outer loop
      vertex 0 3.25 4
      vertex 0 3.75 4
      vertex 1.1588134765625 3.5664615631103516 4
    endloop
  endfacet
  facet normal 0 0 -1
    outer loop
      vertex -1.0043048858642578 3.090932846069336 4
      vertex 0 3.75 4
      vertex 0 3.25 4
    endloop
  endfacet
  facet normal 0 0 -1
    outer loop
      vertex -1.0043048858642578 3.090932846069336 4
      vertex -1.1588134765625 3.5664615631103516 4
      vertex 0 3.75 4
    endloop
  endfacet
  facet normal 0 0 -1
    outer loop
      vertex -1.9103012084960938 2.629304885864258 4
      vertex -1.1588134765625 3.5664615631103516 4
      vertex -1.0043048858642578 3.090932846069336 4
    endloop
  endfacet
  facet normal 0 0 -1
    outer loop
      vertex -1.9103012084960938 2.629304885864258 4
      vertex -2.2041940689086914 3.0338134765625 4
      vertex -1.1588134765625 3.5664615631103516 4
    endloop
  endfacet
  facet normal 0 0 -1
    outer loop
      vertex -2.629304885864258 1.9103012084960938 4
      vertex -2.2041940689086914 3.0338134765625 4
      vertex -1.9103012084960938 2.629304885864258 4
    endloop
  endfacet
  facet normal 0 0 -1
    outer loop
      vertex -2.629304885864258 1.9103012084960938 4
      vertex -3.0338134765625 2.2041940689086914 4
      vertex -2.2041940689086914 3.0338134765625 4
    endloop
  endfacet
  facet normal 0 0 -1
    outer loop
      vertex -3.090932846069336 1.0043048858642578 4
      vertex -3.0338134765625 2.2041940689086914 4
      vertex -2.629304885864258 1.9103012084960938 4
    endloop
  endfacet
  facet normal 0 0 -1
    outer loop
      vertex -3.5664615631103516 1.1588134765625 4
      vertex -3.090932846069336 1.0043048858642578 4
      vertex -3.25 0 4
    endloop
  endfacet
  facet normal 0 0 -1
    outer loop
      vertex -3.75 0 4
      vertex -3.25 0 4
      vertex -3.5664615631103516 -1.1588134765625 4
    endloop
  endfacet
  facet normal 0 0 -1
    outer loop
      vertex -3.090932846069336 1.0043048858642578 4
      vertex -3.5664615631103516 1.1588134765625 4
      vertex -3.0338134765625 2.2041940689086914 4
    endloop
  endfacet
  facet normal 0 0 -1
    outer loop
      vertex -3.25 0 4
      vertex -3.75 0 4
      vertex -3.5664615631103516 1.1588134765625 4
    endloop
  endfacet
  facet normal -0.44075263447966184 -0.8650261692369531 0.2397224264320714
    outer loop
      vertex -1.0043048858642578 -3.090932846069336 4
      vertex -1.9103012084960938 -2.629304885864258 4
      vertex -1.1588134765625 -3.5664615631103516 2
    endloop
  endfacet
  facet normal 0.9588888019724261 0.15187340795092544 0.23972220049310652
    outer loop
      vertex 3.5664615631103516 1.1588134765625 4
      vertex 3.25 0 6
      vertex 3.75 0 4
    endloop
  endfacet
  facet normal 0.6864886050709863 -0.6864886050709863 0.23972231897631655
    outer loop
      vertex 1.9103012084960938 -2.629304885864258 6
      vertex 3.0338134765625 -2.2041940689086914 4
      vertex 2.629304885864258 -1.9103012084960938 6
    endloop
  endfacet
  facet normal 0.6864886050709863 -0.6864886050709863 0.23972231897631655
    outer loop
      vertex 3.0338134765625 -2.2041940689086914 4
      vertex 1.9103012084960938 -2.629304885864258 6
      vertex 2.2041940689086914 -3.0338134765625 4
    endloop
  endfacet
  facet normal -0.9588888019724261 -0.15187340795092544 0.23972220049310652
    outer loop
      vertex -3.25 0 6
      vertex -3.75 0 4
      vertex -3.5664615631103516 -1.1588134765625 4
    endloop
  endfacet
  facet normal 0.9588886612107208 0.1518738905107645 0.23972245781869428
    outer loop
      vertex 3.5664615631103516 1.1588134765625 4
      vertex 3.090932846069336 1.0043048858642578 6
      vertex 3.25 0 6
    endloop
  endfacet
  facet normal -0.15187340795092544 0.9588888019724261 0.23972220049310652
    outer loop
      vertex 0 3.75 4
      vertex -1.1588134765625 3.5664615631103516 4
      vertex 0 3.25 6
    endloop
  endfacet
  facet normal 0.1518738905107645 0.9588886612107208 0.23972245781869428
    outer loop
      vertex 1.1588134765625 3.5664615631103516 4
      vertex 0 3.25 6
      vertex 1.0043048858642578 3.090932846069336 6
    endloop
  endfacet
  facet normal 0.15187340795092544 0.9588888019724261 0.23972220049310652
    outer loop
      vertex 0 3.75 4
      vertex 0 3.25 6
      vertex 1.1588134765625 3.5664615631103516 4
    endloop
  endfacet
  facet normal -0.44075263447966184 0.8650261692369531 0.2397224264320714
    outer loop
      vertex -1.1588134765625 3.5664615631103516 4
      vertex -1.9103012084960938 2.629304885864258 6
      vertex -1.0043048858642578 3.090932846069336 6
    endloop
  endfacet
  facet normal 0.44075286395652763 0.8650260868998021 0.23972230162614128
    outer loop
      vertex 2.2041940689086914 3.0338134765625 4
      vertex 1.1588134765625 3.5664615631103516 4
      vertex 1.9103012084960938 2.629304885864258 6
    endloop
  endfacet
  facet normal -0.1518738905107645 -0.9588886612107208 0.23972245781869428
    outer loop
      vertex -1.0043048858642578 -3.090932846069336 6
      vertex -1.1588134765625 -3.5664615631103516 4
      vertex 0 -3.25 6
    endloop
  endfacet
  facet normal 0.15187340795092544 -0.9588888019724261 0.23972220049310652
    outer loop
      vertex 0 -3.25 6
      vertex 0 -3.75 4
      vertex 1.1588134765625 -3.5664615631103516 4
    endloop
  endfacet
  facet normal -0.6864886050709863 0.6864886050709863 0.23972231897631655
    outer loop
      vertex -3.0338134765625 2.2041940689086914 4
      vertex -1.9103012084960938 2.629304885864258 6
      vertex -2.2041940689086914 3.0338134765625 4
    endloop
  endfacet
  facet normal -0.6864886050709863 0.6864886050709863 0.23972231897631655
    outer loop
      vertex -1.9103012084960938 2.629304885864258 6
      vertex -3.0338134765625 2.2041940689086914 4
      vertex -2.629304885864258 1.9103012084960938 6
    endloop
  endfacet
  facet normal -0.9588886612107208 0.1518738905107645 0.23972245781869428
    outer loop
      vertex -3.090932846069336 1.0043048858642578 6
      vertex -3.5664615631103516 1.1588134765625 4
      vertex -3.25 0 6
    endloop
  endfacet
  facet normal -0.9588888019724261 0.15187340795092544 0.23972220049310652
    outer loop
      vertex -3.5664615631103516 1.1588134765625 4
      vertex -3.75 0 4
      vertex -3.25 0 6
    endloop
  endfacet
  facet normal 0.1518738905107645 -0.9588886612107208 0.23972245781869428
    outer loop
      vertex 1.0043048858642578 -3.090932846069336 6
      vertex 0 -3.25 6
      vertex 1.1588134765625 -3.5664615631103516 4
    endloop
  endfacet
  facet normal -0.8650260868998021 0.44075286395652763 0.23972230162614128
    outer loop
      vertex -3.0338134765625 2.2041940689086914 4
      vertex -3.5664615631103516 1.1588134765625 4
      vertex -2.629304885864258 1.9103012084960938 6
    endloop
  endfacet
  facet normal 0.8650260868998021 -0.44075286395652763 0.23972230162614128
    outer loop
      vertex 3.5664615631103516 -1.1588134765625 4
      vertex 2.629304885864258 -1.9103012084960938 6
      vertex 3.0338134765625 -2.2041940689086914 4
    endloop
  endfacet
  facet normal -0.44075286395652763 0.8650260868998021 0.23972230162614128
    outer loop
      vertex -1.1588134765625 3.5664615631103516 4
      vertex -2.2041940689086914 3.0338134765625 4
      vertex -1.9103012084960938 2.629304885864258 6
    endloop
  endfacet
  facet normal 0.8650260868998021 0.44075286395652763 0.23972230162614128
    outer loop
      vertex 3.0338134765625 2.2041940689086914 4
      vertex 2.629304885864258 1.9103012084960938 6
      vertex 3.5664615631103516 1.1588134765625 4
    endloop
  endfacet
  facet normal 0.8650261692369531 0.44075263447966184 0.2397224264320714
    outer loop
      vertex 3.5664615631103516 1.1588134765625 4
      vertex 2.629304885864258 1.9103012084960938 6
      vertex 3.090932846069336 1.0043048858642578 6
    endloop
  endfacet
  facet normal -0.9588886612107208 -0.1518738905107645 0.23972245781869428
    outer loop
      vertex -3.25 0 6
      vertex -3.5664615631103516 -1.1588134765625 4
      vertex -3.090932846069336 -1.0043048858642578 6
    endloop
  endfacet
  facet normal 0.9588888019724261 -0.15187340795092544 0.23972220049310652
    outer loop
      vertex 3.75 0 4
      vertex 3.25 0 6
      vertex 3.5664615631103516 -1.1588134765625 4
    endloop
  endfacet
  facet normal -0.15187340795092544 -0.9588888019724261 0.23972220049310652
    outer loop
      vertex 0 -3.25 6
      vertex -1.1588134765625 -3.5664615631103516 4
      vertex 0 -3.75 4
    endloop
  endfacet
  facet normal 0.6864886050709863 0.6864886050709863 0.23972231897631655
    outer loop
      vertex 1.9103012084960938 2.629304885864258 6
      vertex 3.0338134765625 2.2041940689086914 4
      vertex 2.2041940689086914 3.0338134765625 4
    endloop
  endfacet
  facet normal 0.6864886050709863 0.6864886050709863 0.23972231897631655
    outer loop
      vertex 3.0338134765625 2.2041940689086914 4
      vertex 1.9103012084960938 2.629304885864258 6
      vertex 2.629304885864258 1.9103012084960938 6
    endloop
  endfacet
  facet normal -0.1518738905107645 0.9588886612107208 0.23972245781869428
    outer loop
      vertex 0 3.25 6
      vertex -1.1588134765625 3.5664615631103516 4
      vertex -1.0043048858642578 3.090932846069336 6
    endloop
  endfacet
  facet normal 0.44075263447966184 0.8650261692369531 0.2397224264320714
    outer loop
      vertex 1.1588134765625 3.5664615631103516 4
      vertex 1.0043048858642578 3.090932846069336 6
      vertex 1.9103012084960938 2.629304885864258 6
    endloop
  endfacet
  facet normal -0.8650260868998021 -0.44075286395652763 0.23972230162614128
    outer loop
      vertex -2.629304885864258 -1.9103012084960938 6
      vertex -3.5664615631103516 -1.1588134765625 4
      vertex -3.0338134765625 -2.2041940689086914 4
    endloop
  endfacet
  facet normal -0.8650261692369531 -0.44075263447966184 0.2397224264320714
    outer loop
      vertex -3.090932846069336 -1.0043048858642578 6
      vertex -3.5664615631103516 -1.1588134765625 4
      vertex -2.629304885864258 -1.9103012084960938 6
    endloop
  endfacet
  facet normal -0.44075286395652763 -0.8650260868998021 0.23972230162614128
    outer loop
      vertex -1.9103012084960938 -2.629304885864258 6
      vertex -2.2041940689086914 -3.0338134765625 4
      vertex -1.1588134765625 -3.5664615631103516 4
    endloop
  endfacet
  facet normal -0.6864886050709863 -0.6864886050709863 0.23972231897631655
    outer loop
      vertex -3.0338134765625 -2.2041940689086914 4
      vertex -1.9103012084960938 -2.629304885864258 6
      vertex -2.629304885864258 -1.9103012084960938 6
    endloop
  endfacet
  facet normal -0.6864886050709863 -0.6864886050709863 0.23972231897631655
    outer loop
      vertex -1.9103012084960938 -2.629304885864258 6
      vertex -3.0338134765625 -2.2041940689086914 4
      vertex -2.2041940689086914 -3.0338134765625 4
    endloop
  endfacet
  facet normal 0.8650261692369531 -0.44075263447966184 0.2397224264320714
    outer loop
      vertex 3.090932846069336 -1.0043048858642578 6
      vertex 2.629304885864258 -1.9103012084960938 6
      vertex 3.5664615631103516 -1.1588134765625 4
    endloop
  endfacet
  facet normal 0.44075263447966184 -0.8650261692369531 0.2397224264320714
    outer loop
      vertex 1.9103012084960938 -2.629304885864258 6
      vertex 1.0043048858642578 -3.090932846069336 6
      vertex 1.1588134765625 -3.5664615631103516 4
    endloop
  endfacet
  facet normal -0.8650261692369531 0.44075263447966184 0.2397224264320714
    outer loop
      vertex -2.629304885864258 1.9103012084960938 6
      vertex -3.5664615631103516 1.1588134765625 4
      vertex -3.090932846069336 1.0043048858642578 6
    endloop
  endfacet
  facet normal 0.44075286395652763 -0.8650260868998021 0.23972230162614128
    outer loop
      vertex 1.9103012084960938 -2.629304885864258 6
      vertex 1.1588134765625 -3.5664615631103516 4
      vertex 2.2041940689086914 -3.0338134765625 4
    endloop
  endfacet
  facet normal 0.9588886612107208 -0.1518738905107645 0.23972245781869428
    outer loop
      vertex 3.25 0 6
      vertex 3.090932846069336 -1.0043048858642578 6
      vertex 3.5664615631103516 -1.1588134765625 4
    endloop
  endfacet
  facet normal 0 0 -1
    outer loop
      vertex 3.25 0 6
      vertex 3.75 0 6
      vertex 3.5664615631103516 -1.1588134765625 6
    endloop
  endfacet
  facet normal 0 0 -1
    outer loop
      vertex 3.75 0 6
      vertex 3.25 0 6
      vertex 3.5664615631103516 1.1588134765625 6
    endloop
  endfacet
  facet normal 0 0 -1
    outer loop
      vertex 3.5664615631103516 -1.1588134765625 6
      vertex 3.090932846069336 -1.0043048858642578 6
      vertex 3.25 0 6
    endloop
  endfacet
  facet normal 0 0 -1
    outer loop
      vertex 3.0338134765625 -2.2041940689086914 6
      vertex 3.090932846069336 -1.0043048858642578 6
      vertex 3.5664615631103516 -1.1588134765625 6
    endloop
  endfacet
  facet normal 0 0 -1
    outer loop
      vertex 3.0338134765625 -2.2041940689086914 6
      vertex 2.629304885864258 -1.9103012084960938 6
      vertex 3.090932846069336 -1.0043048858642578 6
    endloop
  endfacet
  facet normal 0 0 -1
    outer loop
      vertex 2.2041940689086914 -3.0338134765625 6
      vertex 2.629304885864258 -1.9103012084960938 6
      vertex 3.0338134765625 -2.2041940689086914 6
    endloop
  endfacet
  facet normal 0 0 -1
    outer loop
      vertex 2.2041940689086914 -3.0338134765625 6
      vertex 1.9103012084960938 -2.629304885864258 6
      vertex 2.629304885864258 -1.9103012084960938 6
    endloop
  endfacet
  facet normal 0 0 -1
    outer loop
      vertex 1.1588134765625 -3.5664615631103516 6
      vertex 1.9103012084960938 -2.629304885864258 6
      vertex 2.2041940689086914 -3.0338134765625 6
    endloop
  endfacet
  facet normal 0 0 -1
    outer loop
      vertex 1.1588134765625 -3.5664615631103516 6
      vertex 1.0043048858642578 -3.090932846069336 6
      vertex 1.9103012084960938 -2.629304885864258 6
    endloop
  endfacet
  facet normal 0 0 -1
    outer loop
      vertex 0 -3.75 6
      vertex 1.0043048858642578 -3.090932846069336 6
      vertex 1.1588134765625 -3.5664615631103516 6
    endloop
  endfacet
  facet normal 0 0 -1
    outer loop
      vertex 0 -3.75 6
      vertex 0 -3.25 6
      vertex 1.0043048858642578 -3.090932846069336 6
    endloop
  endfacet
  facet normal 0 0 -1
    outer loop
      vertex 0 -3.75 6
      vertex -1.0043048858642578 -3.090932846069336 6
      vertex 0 -3.25 6
    endloop
  endfacet
  facet normal 0 0 -1
    outer loop
      vertex -1.1588134765625 -3.5664615631103516 6
      vertex -1.0043048858642578 -3.090932846069336 6
      vertex 0 -3.75 6
    endloop
  endfacet
  facet normal 0 0 -1
    outer loop
      vertex -1.1588134765625 -3.5664615631103516 6
      vertex -1.9103012084960938 -2.629304885864258 6
      vertex -1.0043048858642578 -3.090932846069336 6
    endloop
  endfacet
  facet normal 0 0 -1
    outer loop
      vertex -2.2041940689086914 -3.0338134765625 6
      vertex -1.9103012084960938 -2.629304885864258 6
      vertex -1.1588134765625 -3.5664615631103516 6
    endloop
  endfacet
  facet normal 0 0 -1
    outer loop
      vertex -2.2041940689086914 -3.0338134765625 6
      vertex -2.629304885864258 -1.9103012084960938 6
      vertex -1.9103012084960938 -2.629304885864258 6
    endloop
  endfacet
  facet normal 0 0 -1
    outer loop
      vertex -3.0338134765625 -2.2041940689086914 6
      vertex -2.629304885864258 -1.9103012084960938 6
      vertex -2.2041940689086914 -3.0338134765625 6
    endloop
  endfacet
  facet normal 0 0 -1
    outer loop
      vertex -3.0338134765625 -2.2041940689086914 6
      vertex -3.090932846069336 -1.0043048858642578 6
      vertex -2.629304885864258 -1.9103012084960938 6
    endloop
  endfacet
  facet normal 0 0 -1
    outer loop
      vertex -3.5664615631103516 -1.1588134765625 6
      vertex -3.090932846069336 -1.0043048858642578 6
      vertex -3.0338134765625 -2.2041940689086914 6
    endloop
  endfacet
  facet normal 0 0 -1
    outer loop
      vertex -3.090932846069336 -1.0043048858642578 6
      vertex -3.5664615631103516 -1.1588134765625 6
      vertex -3.25 0 6
    endloop
  endfacet
  facet normal 0 0 -1
    outer loop
      vertex 3.090932846069336 1.0043048858642578 6
      vertex 3.5664615631103516 1.1588134765625 6
      vertex 3.25 0 6
    endloop
  endfacet
  facet normal 0 0 -1
    outer loop
      vertex 3.090932846069336 1.0043048858642578 6
      vertex 3.0338134765625 2.2041940689086914 6
      vertex 3.5664615631103516 1.1588134765625 6
    endloop
  endfacet
  facet normal 0 0 -1
    outer loop
      vertex 2.629304885864258 1.9103012084960938 6
      vertex 3.0338134765625 2.2041940689086914 6
      vertex 3.090932846069336 1.0043048858642578 6
    endloop
  endfacet
  facet normal 0 0 -1
    outer loop
      vertex 2.629304885864258 1.9103012084960938 6
      vertex 2.2041940689086914 3.0338134765625 6
      vertex 3.0338134765625 2.2041940689086914 6
    endloop
  endfacet
  facet normal 0 0 -1
    outer loop
      vertex 1.9103012084960938 2.629304885864258 6
      vertex 2.2041940689086914 3.0338134765625 6
      vertex 2.629304885864258 1.9103012084960938 6
    endloop
  endfacet
  facet normal 0 0 -1
    outer loop
      vertex 1.9103012084960938 2.629304885864258 6
      vertex 1.1588134765625 3.5664615631103516 6
      vertex 2.2041940689086914 3.0338134765625 6
    endloop
  endfacet
  facet normal 0 0 -1
    outer loop
      vertex 1.0043048858642578 3.090932846069336 6
      vertex 1.1588134765625 3.5664615631103516 6
      vertex 1.9103012084960938 2.629304885864258 6
    endloop
  endfacet
  facet normal 0 0 -1
    outer loop
      vertex 0 3.25 6
      vertex 1.1588134765625 3.5664615631103516 6
      vertex 1.0043048858642578 3.090932846069336 6
    endloop
  endfacet
  facet normal 0 0 -1
    outer loop
      vertex 0 3.25 6
      vertex 0 3.75 6
      vertex 1.1588134765625 3.5664615631103516 6
    endloop
  endfacet
  facet normal 0 0 -1
    outer loop
      vertex -1.0043048858642578 3.090932846069336 6
      vertex 0 3.75 6
      vertex 0 3.25 6
    endloop
  endfacet
  facet normal 0 0 -1
    outer loop
      vertex -1.0043048858642578 3.090932846069336 6
      vertex -1.1588134765625 3.5664615631103516 6
      vertex 0 3.75 6
    endloop
  endfacet
  facet normal 0 0 -1
    outer loop
      vertex -1.9103012084960938 2.629304885864258 6
      vertex -1.1588134765625 3.5664615631103516 6
      vertex -1.0043048858642578 3.090932846069336 6
    endloop
  endfacet
  facet normal 0 0 -1
    outer loop
      vertex -1.9103012084960938 2.629304885864258 6
      vertex -2.2041940689086914 3.0338134765625 6
      vertex -1.1588134765625 3.5664615631103516 6
    endloop
  endfacet
  facet normal 0 0 -1
    outer loop
      vertex -2.629304885864258 1.9103012084960938 6
      vertex -2.2041940689086914 3.0338134765625 6
      vertex -1.9103012084960938 2.629304885864258 6
    endloop
  endfacet
  facet normal 0 0 -1
    outer loop
      vertex -2.629304885864258 1.9103012084960938 6
      vertex -3.0338134765625 2.2041940689086914 6
      vertex -2.2041940689086914 3.0338134765625 6
    endloop
  endfacet
  facet normal 0 0 -1
    outer loop
      vertex -3.090932846069336 1.0043048858642578 6
      vertex -3.0338134765625 2.2041940689086914 6
      vertex -2.629304885864258 1.9103012084960938 6
    endloop
  endfacet
  facet normal 0 0 -1
    outer loop
      vertex -3.5664615631103516 1.1588134765625 6
      vertex -3.090932846069336 1.0043048858642578 6
      vertex -3.25 0 6
    endloop
  endfacet
  facet normal 0 0 -1
    outer loop
      vertex -3.75 0 6
      vertex -3.25 0 6
      vertex -3.5664615631103516 -1.1588134765625 6
    endloop
  endfacet
  facet normal 0 0 -1
    outer loop
      vertex -3.090932846069336 1.0043048858642578 6
      vertex -3.5664615631103516 1.1588134765625 6
      vertex -3.0338134765625 2.2041940689086914 6
    endloop
  endfacet
  facet normal 0 0 -1
    outer loop
      vertex -3.25 0 6
      vertex -3.75 0 6
      vertex -3.5664615631103516 1.1588134765625 6
    endloop
  endfacet
  facet normal -0.44075263447966184 -0.8650261692369531 0.2397224264320714
    outer loop
      vertex -1.0043048858642578 -3.090932846069336 6
      vertex -1.9103012084960938 -2.629304885864258 6
      vertex -1.1588134765625 -3.5664615631103516 4
    endloop
  endfacet
  facet normal 0.9588888019724261 0.15187340795092544 0.23972220049310652
    outer loop
      vertex 3.5664615631103516 1.1588134765625 6
      vertex 3.25 0 8
      vertex 3.75 0 6
    endloop
  endfacet
  facet normal 0.8650260868998021 0.44075286395652763 0.23972230162614128
    outer loop
      vertex 3.0338134765625 2.2041940689086914 6
      vertex 2.629304885864258 1.9103012084960938 8
      vertex 3.5664615631103516 1.1588134765625 6
    endloop
  endfacet
  facet normal 0.6864886050709863 0.6864886050709863 0.23972231897631655
    outer loop
      vertex 1.9103012084960938 2.629304885864258 8
      vertex 3.0338134765625 2.2041940689086914 6
      vertex 2.2041940689086914 3.0338134765625 6
    endloop
  endfacet
  facet normal 0.6864886050709863 0.6864886050709863 0.23972231897631655
    outer loop
      vertex 3.0338134765625 2.2041940689086914 6
      vertex 1.9103012084960938 2.629304885864258 8
      vertex 2.629304885864258 1.9103012084960938 8
    endloop
  endfacet
  facet normal 0.9588886612107208 0.1518738905107645 0.23972245781869428
    outer loop
      vertex 3.5664615631103516 1.1588134765625 6
      vertex 3.090932846069336 1.0043048858642578 8
      vertex 3.25 0 8
    endloop
  endfacet
  facet normal 0.9588888019724261 -0.15187340795092544 0.23972220049310652
    outer loop
      vertex 3.75 0 6
      vertex 3.25 0 8
      vertex 3.5664615631103516 -1.1588134765625 6
    endloop
  endfacet
  facet normal 0.1518738905107645 -0.9588886612107208 0.23972245781869428
    outer loop
      vertex 1.0043048858642578 -3.090932846069336 8
      vertex 0 -3.25 8
      vertex 1.1588134765625 -3.5664615631103516 6
    endloop
  endfacet
  facet normal -0.8650261692369531 -0.44075263447966184 0.2397224264320714
    outer loop
      vertex -3.090932846069336 -1.0043048858642578 8
      vertex -3.5664615631103516 -1.1588134765625 6
      vertex -2.629304885864258 -1.9103012084960938 8
    endloop
  endfacet
  facet normal 0.44075263447966184 -0.8650261692369531 0.2397224264320714
    outer loop
      vertex 1.9103012084960938 -2.629304885864258 8
      vertex 1.0043048858642578 -3.090932846069336 8
      vertex 1.1588134765625 -3.5664615631103516 6
    endloop
  endfacet
  facet normal 0.15187340795092544 0.9588888019724261 0.23972220049310652
    outer loop
      vertex 0 3.75 6
      vertex 0 3.25 8
      vertex 1.1588134765625 3.5664615631103516 6
    endloop
  endfacet
  facet normal -0.9588886612107208 -0.1518738905107645 0.23972245781869428
    outer loop
      vertex -3.25 0 8
      vertex -3.5664615631103516 -1.1588134765625 6
      vertex -3.090932846069336 -1.0043048858642578 8
    endloop
  endfacet
  facet normal 0.44075286395652763 0.8650260868998021 0.23972230162614128
    outer loop
      vertex 2.2041940689086914 3.0338134765625 6
      vertex 1.1588134765625 3.5664615631103516 6
      vertex 1.9103012084960938 2.629304885864258 8
    endloop
  endfacet
  facet normal -0.44075286395652763 0.8650260868998021 0.23972230162614128
    outer loop
      vertex -1.1588134765625 3.5664615631103516 6
      vertex -2.2041940689086914 3.0338134765625 6
      vertex -1.9103012084960938 2.629304885864258 8
    endloop
  endfacet
  facet normal 0.15187340795092544 -0.9588888019724261 0.23972220049310652
    outer loop
      vertex 0 -3.25 8
      vertex 0 -3.75 6
      vertex 1.1588134765625 -3.5664615631103516 6
    endloop
  endfacet
  facet normal -0.15187340795092544 0.9588888019724261 0.23972220049310652
    outer loop
      vertex 0 3.75 6
      vertex -1.1588134765625 3.5664615631103516 6
      vertex 0 3.25 8
    endloop
  endfacet
  facet normal -0.9588888019724261 -0.15187340795092544 0.23972220049310652
    outer loop
      vertex -3.25 0 8
      vertex -3.75 0 6
      vertex -3.5664615631103516 -1.1588134765625 6
    endloop
  endfacet
  facet normal -0.8650260868998021 0.44075286395652763 0.23972230162614128
    outer loop
      vertex -3.0338134765625 2.2041940689086914 6
      vertex -3.5664615631103516 1.1588134765625 6
      vertex -2.629304885864258 1.9103012084960938 8
    endloop
  endfacet
  facet normal -0.44075263447966184 0.8650261692369531 0.2397224264320714
    outer loop
      vertex -1.1588134765625 3.5664615631103516 6
      vertex -1.9103012084960938 2.629304885864258 8
      vertex -1.0043048858642578 3.090932846069336 8
    endloop
  endfacet
  facet normal -0.1518738905107645 0.9588886612107208 0.23972245781869428
    outer loop
      vertex 0 3.25 8
      vertex -1.1588134765625 3.5664615631103516 6
      vertex -1.0043048858642578 3.090932846069336 8
    endloop
  endfacet
  facet normal -0.1518738905107645 -0.9588886612107208 0.23972245781869428
    outer loop
      vertex -1.0043048858642578 -3.090932846069336 8
      vertex -1.1588134765625 -3.5664615631103516 6
      vertex 0 -3.25 8
    endloop
  endfacet
  facet normal -0.44075263447966184 -0.8650261692369531 0.2397224264320714
    outer loop
      vertex -1.0043048858642578 -3.090932846069336 8
      vertex -1.9103012084960938 -2.629304885864258 8
      vertex -1.1588134765625 -3.5664615631103516 6
    endloop
  endfacet
  facet normal -0.44075286395652763 -0.8650260868998021 0.23972230162614128
    outer loop
      vertex -1.9103012084960938 -2.629304885864258 8
      vertex -2.2041940689086914 -3.0338134765625 6
      vertex -1.1588134765625 -3.5664615631103516 6
    endloop
  endfacet
  facet normal -0.6864886050709863 -0.6864886050709863 0.23972231897631655
    outer loop
      vertex -3.0338134765625 -2.2041940689086914 6
      vertex -1.9103012084960938 -2.629304885864258 8
      vertex -2.629304885864258 -1.9103012084960938 8
    endloop
  endfacet
  facet normal -0.6864886050709863 -0.6864886050709863 0.23972231897631655
    outer loop
      vertex -1.9103012084960938 -2.629304885864258 8
      vertex -3.0338134765625 -2.2041940689086914 6
      vertex -2.2041940689086914 -3.0338134765625 6
    endloop
  endfacet
  facet normal 0.8650261692369531 0.44075263447966184 0.2397224264320714
    outer loop
      vertex 3.5664615631103516 1.1588134765625 6
      vertex 2.629304885864258 1.9103012084960938 8
      vertex 3.090932846069336 1.0043048858642578 8
    endloop
  endfacet
  facet normal 0.8650260868998021 -0.44075286395652763 0.23972230162614128
    outer loop
      vertex 3.5664615631103516 -1.1588134765625 6
      vertex 2.629304885864258 -1.9103012084960938 8
      vertex 3.0338134765625 -2.2041940689086914 6
    endloop
  endfacet
  facet normal -0.15187340795092544 -0.9588888019724261 0.23972220049310652
    outer loop
      vertex 0 -3.25 8
      vertex -1.1588134765625 -3.5664615631103516 6
      vertex 0 -3.75 6
    endloop
  endfacet
  facet normal -0.9588888019724261 0.15187340795092544 0.23972220049310652
    outer loop
      vertex -3.5664615631103516 1.1588134765625 6
      vertex -3.75 0 6
      vertex -3.25 0 8
    endloop
  endfacet
  facet normal -0.9588886612107208 0.1518738905107645 0.23972245781869428
    outer loop
      vertex -3.090932846069336 1.0043048858642578 8
      vertex -3.5664615631103516 1.1588134765625 6
      vertex -3.25 0 8
    endloop
  endfacet
  facet normal 0.6864886050709863 -0.6864886050709863 0.23972231897631655
    outer loop
      vertex 1.9103012084960938 -2.629304885864258 8
      vertex 3.0338134765625 -2.2041940689086914 6
      vertex 2.629304885864258 -1.9103012084960938 8
    endloop
  endfacet
  facet normal 0.6864886050709863 -0.6864886050709863 0.23972231897631655
    outer loop
      vertex 3.0338134765625 -2.2041940689086914 6
      vertex 1.9103012084960938 -2.629304885864258 8
      vertex 2.2041940689086914 -3.0338134765625 6
    endloop
  endfacet
  facet normal 0.1518738905107645 0.9588886612107208 0.23972245781869428
    outer loop
      vertex 1.1588134765625 3.5664615631103516 6
      vertex 0 3.25 8
      vertex 1.0043048858642578 3.090932846069336 8
    endloop
  endfacet
  facet normal 0.8650261692369531 -0.44075263447966184 0.2397224264320714
    outer loop
      vertex 3.090932846069336 -1.0043048858642578 8
      vertex 2.629304885864258 -1.9103012084960938 8
      vertex 3.5664615631103516 -1.1588134765625 6
    endloop
  endfacet
  facet normal -0.8650260868998021 -0.44075286395652763 0.23972230162614128
    outer loop
      vertex -2.629304885864258 -1.9103012084960938 8
      vertex -3.5664615631103516 -1.1588134765625 6
      vertex -3.0338134765625 -2.2041940689086914 6
    endloop
  endfacet
  facet normal -0.8650261692369531 0.44075263447966184 0.2397224264320714
    outer loop
      vertex -2.629304885864258 1.9103012084960938 8
      vertex -3.5664615631103516 1.1588134765625 6
      vertex -3.090932846069336 1.0043048858642578 8
    endloop
  endfacet
  facet normal -0.6864886050709863 0.6864886050709863 0.23972231897631655
    outer loop
      vertex -3.0338134765625 2.2041940689086914 6
      vertex -1.9103012084960938 2.629304885864258 8
      vertex -2.2041940689086914 3.0338134765625 6
    endloop
  endfacet
  facet normal -0.6864886050709863 0.6864886050709863 0.23972231897631655
    outer loop
      vertex -1.9103012084960938 2.629304885864258 8
      vertex -3.0338134765625 2.2041940689086914 6
      vertex -2.629304885864258 1.9103012084960938 8
    endloop
  endfacet
  facet normal 0.44075286395652763 -0.8650260868998021 0.23972230162614128
    outer loop
      vertex 1.9103012084960938 -2.629304885864258 8
      vertex 1.1588134765625 -3.5664615631103516 6
      vertex 2.2041940689086914 -3.0338134765625 6
    endloop
  endfacet
  facet normal 0.9588886612107208 -0.1518738905107645 0.23972245781869428
    outer loop
      vertex 3.25 0 8
      vertex 3.090932846069336 -1.0043048858642578 8
      vertex 3.5664615631103516 -1.1588134765625 6
    endloop
  endfacet
  facet normal 0.44075263447966184 0.8650261692369531 0.2397224264320714
    outer loop
      vertex 1.1588134765625 3.5664615631103516 6
      vertex 1.0043048858642578 3.090932846069336 8
      vertex 1.9103012084960938 2.629304885864258 8
    endloop
  endfacet
  facet normal 0 0 1
    outer loop
      vertex 1.5 0 10
      vertex 3.25 0 10
      vertex 3.090932846069336 1.0043048858642578 10
    endloop
  endfacet
  facet normal 0 0 1
    outer loop
      vertex 1.426584243774414 0.46352481842041016 10
      vertex 3.090932846069336 1.0043048858642578 10
      vertex 2.629304885864258 1.9103012084960938 10
    endloop
  endfacet
  facet normal 0 0 1
    outer loop
      vertex 3.25 0 10
      vertex 1.5 0 10
      vertex 3.090932846069336 -1.0043048858642578 10
    endloop
  endfacet
  facet normal 0 0 1
    outer loop
      vertex 1.2135248184204102 0.8816776275634766 10
      vertex 2.629304885864258 1.9103012084960938 10
      vertex 1.9103012084960938 2.629304885864258 10
    endloop
  endfacet
  facet normal 0 0 1
    outer loop
      vertex 1.426584243774414 -0.46352481842041016 10
      vertex 3.090932846069336 -1.0043048858642578 10
      vertex 1.5 0 10
    endloop
  endfacet
  facet normal 0 0 1
    outer loop
      vertex 3.090932846069336 -1.0043048858642578 10
      vertex 1.426584243774414 -0.46352481842041016 10
      vertex 2.629304885864258 -1.9103012084960938 10
    endloop
  endfacet
  facet normal 0 0 1
    outer loop
      vertex 3.090932846069336 1.0043048858642578 10
      vertex 1.426584243774414 0.46352481842041016 10
      vertex 1.5 0 10
    endloop
  endfacet
  facet normal 0 0 1
    outer loop
      vertex 2.629304885864258 1.9103012084960938 10
      vertex 1.2135248184204102 0.8816776275634766 10
      vertex 1.426584243774414 0.46352481842041016 10
    endloop
  endfacet
  facet normal 0 0 1
    outer loop
      vertex 0.8816776275634766 1.2135248184204102 10
      vertex 1.9103012084960938 2.629304885864258 10
      vertex 1.0043048858642578 3.090932846069336 10
    endloop
  endfacet
  facet normal 0 0 1
    outer loop
      vertex 1.9103012084960938 2.629304885864258 10
      vertex 0.8816776275634766 1.2135248184204102 10
      vertex 1.2135248184204102 0.8816776275634766 10
    endloop
  endfacet
  facet normal 0 0 1
    outer loop
      vertex 1.0043048858642578 3.090932846069336 10
      vertex 0.46352481842041016 1.426584243774414 10
      vertex 0.8816776275634766 1.2135248184204102 10
    endloop
  endfacet
  facet normal 0 0 1
    outer loop
      vertex 0 3.25 10
      vertex 0.46352481842041016 1.426584243774414 10
      vertex 1.0043048858642578 3.090932846069336 10
    endloop
  endfacet
  facet normal 0 0 1
    outer loop
      vertex 0 3.25 10
      vertex 0 1.5 10
      vertex 0.46352481842041016 1.426584243774414 10
    endloop
  endfacet
  facet normal 0 0 1
    outer loop
      vertex 0 3.25 10
      vertex -0.46352481842041016 1.426584243774414 10
      vertex 0 1.5 10
    endloop
  endfacet
  facet normal 0 0 1
    outer loop
      vertex -1.0043048858642578 3.090932846069336 10
      vertex -0.46352481842041016 1.426584243774414 10
      vertex 0 3.25 10
    endloop
  endfacet
  facet normal 0 0 1
    outer loop
      vertex -0.46352481842041016 1.426584243774414 10
      vertex -1.0043048858642578 3.090932846069336 10
      vertex -0.8816776275634766 1.2135248184204102 10
    endloop
  endfacet
  facet normal 0 0 1
    outer loop
      vertex -1.9103012084960938 2.629304885864258 10
      vertex -0.8816776275634766 1.2135248184204102 10
      vertex -1.0043048858642578 3.090932846069336 10
    endloop
  endfacet
  facet normal 0 0 1
    outer loop
      vertex -0.8816776275634766 1.2135248184204102 10
      vertex -1.9103012084960938 2.629304885864258 10
      vertex -1.2135248184204102 0.8816776275634766 10
    endloop
  endfacet
  facet normal 0 0 1
    outer loop
      vertex -1.2135248184204102 0.8816776275634766 10
      vertex -2.629304885864258 1.9103012084960938 10
      vertex -1.426584243774414 0.46352481842041016 10
    endloop
  endfacet
  facet normal 0 0 1
    outer loop
      vertex -2.629304885864258 1.9103012084960938 10
      vertex -1.2135248184204102 0.8816776275634766 10
      vertex -1.9103012084960938 2.629304885864258 10
    endloop
  endfacet
  facet normal 0 0 1
    outer loop
      vertex 1.2135248184204102 -0.8816776275634766 10
      vertex 2.629304885864258 -1.9103012084960938 10
      vertex 1.426584243774414 -0.46352481842041016 10
    endloop
  endfacet
  facet normal 0 0 1
    outer loop
      vertex 2.629304885864258 -1.9103012084960938 10
      vertex 1.2135248184204102 -0.8816776275634766 10
      vertex 1.9103012084960938 -2.629304885864258 10
    endloop
  endfacet
  facet normal 0 0 1
    outer loop
      vertex 0.8816776275634766 -1.2135248184204102 10
      vertex 1.9103012084960938 -2.629304885864258 10
      vertex 1.2135248184204102 -0.8816776275634766 10
    endloop
  endfacet
  facet normal 0 0 1
    outer loop
      vertex 1.9103012084960938 -2.629304885864258 10
      vertex 0.8816776275634766 -1.2135248184204102 10
      vertex 1.0043048858642578 -3.090932846069336 10
    endloop
  endfacet
  facet normal 0 0 1
    outer loop
      vertex 0.46352481842041016 -1.426584243774414 10
      vertex 1.0043048858642578 -3.090932846069336 10
      vertex 0.8816776275634766 -1.2135248184204102 10
    endloop
  endfacet
  facet normal 0 0 1
    outer loop
      vertex 0 -1.5 10
      vertex 1.0043048858642578 -3.090932846069336 10
      vertex 0.46352481842041016 -1.426584243774414 10
    endloop
  endfacet
  facet normal 0 0 1
    outer loop
      vertex 0 -1.5 10
      vertex 0 -3.25 10
      vertex 1.0043048858642578 -3.090932846069336 10
    endloop
  endfacet
  facet normal 0 0 1
    outer loop
      vertex -0.46352481842041016 -1.426584243774414 10
      vertex 0 -3.25 10
      vertex 0 -1.5 10
    endloop
  endfacet
  facet normal 0 0 1
    outer loop
      vertex -1.0043048858642578 -3.090932846069336 10
      vertex -0.46352481842041016 -1.426584243774414 10
      vertex -0.8816776275634766 -1.2135248184204102 10
    endloop
  endfacet
  facet normal 0 0 1
    outer loop
      vertex -0.46352481842041016 -1.426584243774414 10
      vertex -1.0043048858642578 -3.090932846069336 10
      vertex 0 -3.25 10
    endloop
  endfacet
  facet normal 0 0 1
    outer loop
      vertex -1.9103012084960938 -2.629304885864258 10
      vertex -0.8816776275634766 -1.2135248184204102 10
      vertex -1.2135248184204102 -0.8816776275634766 10
    endloop
  endfacet
  facet normal 0 0 1
    outer loop
      vertex -2.629304885864258 -1.9103012084960938 10
      vertex -1.2135248184204102 -0.8816776275634766 10
      vertex -1.426584243774414 -0.46352481842041016 10
    endloop
  endfacet
  facet normal 0 0 1
    outer loop
      vertex -0.8816776275634766 -1.2135248184204102 10
      vertex -1.9103012084960938 -2.629304885864258 10
      vertex -1.0043048858642578 -3.090932846069336 10
    endloop
  endfacet
  facet normal 0 0 1
    outer loop
      vertex -3.090932846069336 -1.0043048858642578 10
      vertex -1.426584243774414 -0.46352481842041016 10
      vertex -1.5 0 10
    endloop
  endfacet
  facet normal 0 0 1
    outer loop
      vertex -3.090932846069336 1.0043048858642578 10
      vertex -1.426584243774414 0.46352481842041016 10
      vertex -2.629304885864258 1.9103012084960938 10
    endloop
  endfacet
  facet normal 0 0 1
    outer loop
      vertex -1.426584243774414 0.46352481842041016 10
      vertex -3.090932846069336 1.0043048858642578 10
      vertex -1.5 0 10
    endloop
  endfacet
  facet normal 0 0 1
    outer loop
      vertex -1.2135248184204102 -0.8816776275634766 10
      vertex -2.629304885864258 -1.9103012084960938 10
      vertex -1.9103012084960938 -2.629304885864258 10
    endloop
  endfacet
  facet normal 0 0 1
    outer loop
      vertex -3.25 0 10
      vertex -1.5 0 10
      vertex -3.090932846069336 1.0043048858642578 10
    endloop
  endfacet
  facet normal 0 0 1
    outer loop
      vertex -1.426584243774414 -0.46352481842041016 10
      vertex -3.090932846069336 -1.0043048858642578 10
      vertex -2.629304885864258 -1.9103012084960938 10
    endloop
  endfacet
  facet normal 0 0 1
    outer loop
      vertex -1.5 0 10
      vertex -3.25 0 10
      vertex -3.090932846069336 -1.0043048858642578 10
    endloop
  endfacet
  facet normal -0.1564353156984086 -0.9876882058637428 0
    outer loop
      vertex -1.0043048858642578 -3.090932846069336 8
      vertex 0 -3.25 10
      vertex -1.0043048858642578 -3.090932846069336 10
    endloop
  endfacet
  facet normal -0.1564353156984086 -0.9876882058637428 0
    outer loop
      vertex 0 -3.25 10
      vertex -1.0043048858642578 -3.090932846069336 8
      vertex 0 -3.25 8
    endloop
  endfacet
  facet normal 0.9876882058637428 0.1564353156984086 0
    outer loop
      vertex 3.25 0 10
      vertex 3.090932846069336 1.0043048858642578 8
      vertex 3.090932846069336 1.0043048858642578 10
    endloop
  endfacet
  facet normal 0.9876882058637428 0.1564353156984086 0
    outer loop
      vertex 3.090932846069336 1.0043048858642578 8
      vertex 3.25 0 10
      vertex 3.25 0 8
    endloop
  endfacet
  facet normal -0.7071067811865476 -0.7071067811865476 0
    outer loop
      vertex -1.9103012084960938 -2.629304885864258 8
      vertex -2.629304885864258 -1.9103012084960938 10
      vertex -2.629304885864258 -1.9103012084960938 8
    endloop
  endfacet
  facet normal -0.7071067811865476 -0.7071067811865476 0
    outer loop
      vertex -2.629304885864258 -1.9103012084960938 10
      vertex -1.9103012084960938 -2.629304885864258 8
      vertex -1.9103012084960938 -2.629304885864258 10
    endloop
  endfacet
  facet normal -0.45399032537744954 0.8910066130302723 0
    outer loop
      vertex -1.0043048858642578 3.090932846069336 8
      vertex -1.9103012084960938 2.629304885864258 10
      vertex -1.0043048858642578 3.090932846069336 10
    endloop
  endfacet
  facet normal -0.45399032537744954 0.8910066130302723 0
    outer loop
      vertex -1.9103012084960938 2.629304885864258 10
      vertex -1.0043048858642578 3.090932846069336 8
      vertex -1.9103012084960938 2.629304885864258 8
    endloop
  endfacet
  facet normal -0.9876882058637428 0.1564353156984086 0
    outer loop
      vertex -3.25 0 8
      vertex -3.090932846069336 1.0043048858642578 10
      vertex -3.090932846069336 1.0043048858642578 8
    endloop
  endfacet
  facet normal -0.9876882058637428 0.1564353156984086 0
    outer loop
      vertex -3.090932846069336 1.0043048858642578 10
      vertex -3.25 0 8
      vertex -3.25 0 10
    endloop
  endfacet
  facet normal -0.8910066130302723 0.45399032537744954 0
    outer loop
      vertex -3.090932846069336 1.0043048858642578 8
      vertex -2.629304885864258 1.9103012084960938 10
      vertex -2.629304885864258 1.9103012084960938 8
    endloop
  endfacet
  facet normal -0.8910066130302723 0.45399032537744954 0
    outer loop
      vertex -2.629304885864258 1.9103012084960938 10
      vertex -3.090932846069336 1.0043048858642578 8
      vertex -3.090932846069336 1.0043048858642578 10
    endloop
  endfacet
  facet normal 0.45399032537744954 0.8910066130302723 0
    outer loop
      vertex 1.9103012084960938 2.629304885864258 8
      vertex 1.0043048858642578 3.090932846069336 10
      vertex 1.9103012084960938 2.629304885864258 10
    endloop
  endfacet
  facet normal 0.45399032537744954 0.8910066130302723 0
    outer loop
      vertex 1.0043048858642578 3.090932846069336 10
      vertex 1.9103012084960938 2.629304885864258 8
      vertex 1.0043048858642578 3.090932846069336 8
    endloop
  endfacet
  facet normal 0.1564353156984086 0.9876882058637428 0
    outer loop
      vertex 1.0043048858642578 3.090932846069336 8
      vertex 0 3.25 10
      vertex 1.0043048858642578 3.090932846069336 10
    endloop
  endfacet
  facet normal 0.1564353156984086 0.9876882058637428 0
    outer loop
      vertex 0 3.25 10
      vertex 1.0043048858642578 3.090932846069336 8
      vertex 0 3.25 8
    endloop
  endfacet
  facet normal 0.45399032537744954 -0.8910066130302723 0
    outer loop
      vertex 1.0043048858642578 -3.090932846069336 8
      vertex 1.9103012084960938 -2.629304885864258 10
      vertex 1.0043048858642578 -3.090932846069336 10
    endloop
  endfacet
  facet normal 0.45399032537744954 -0.8910066130302723 0
    outer loop
      vertex 1.9103012084960938 -2.629304885864258 10
      vertex 1.0043048858642578 -3.090932846069336 8
      vertex 1.9103012084960938 -2.629304885864258 8
    endloop
  endfacet
  facet normal 0.8910066130302723 0.45399032537744954 0
    outer loop
      vertex 3.090932846069336 1.0043048858642578 10
      vertex 2.629304885864258 1.9103012084960938 8
      vertex 2.629304885864258 1.9103012084960938 10
    endloop
  endfacet
  facet normal 0.8910066130302723 0.45399032537744954 0
    outer loop
      vertex 2.629304885864258 1.9103012084960938 8
      vertex 3.090932846069336 1.0043048858642578 10
      vertex 3.090932846069336 1.0043048858642578 8
    endloop
  endfacet
  facet normal 0.7071067811865476 0.7071067811865476 0
    outer loop
      vertex 2.629304885864258 1.9103012084960938 10
      vertex 1.9103012084960938 2.629304885864258 8
      vertex 1.9103012084960938 2.629304885864258 10
    endloop
  endfacet
  facet normal 0.7071067811865476 0.7071067811865476 0
    outer loop
      vertex 1.9103012084960938 2.629304885864258 8
      vertex 2.629304885864258 1.9103012084960938 10
      vertex 2.629304885864258 1.9103012084960938 8
    endloop
  endfacet
  facet normal 0.1564353156984086 -0.9876882058637428 0
    outer loop
      vertex 0 -3.25 8
      vertex 1.0043048858642578 -3.090932846069336 10
      vertex 0 -3.25 10
    endloop
  endfacet
  facet normal 0.1564353156984086 -0.9876882058637428 0
    outer loop
      vertex 1.0043048858642578 -3.090932846069336 10
      vertex 0 -3.25 8
      vertex 1.0043048858642578 -3.090932846069336 8
    endloop
  endfacet
  facet normal -0.9876882058637428 -0.1564353156984086 0
    outer loop
      vertex -3.090932846069336 -1.0043048858642578 8
      vertex -3.25 0 10
      vertex -3.25 0 8
    endloop
  endfacet
  facet normal -0.9876882058637428 -0.1564353156984086 0
    outer loop
      vertex -3.25 0 10
      vertex -3.090932846069336 -1.0043048858642578 8
      vertex -3.090932846069336 -1.0043048858642578 10
    endloop
  endfacet
  facet normal 0.9876882058637428 -0.1564353156984086 0
    outer loop
      vertex 3.090932846069336 -1.0043048858642578 10
      vertex 3.25 0 8
      vertex 3.25 0 10
    endloop
  endfacet
  facet normal 0.9876882058637428 -0.1564353156984086 0
    outer loop
      vertex 3.25 0 8
      vertex 3.090932846069336 -1.0043048858642578 10
      vertex 3.090932846069336 -1.0043048858642578 8
    endloop
  endfacet
  facet normal 0.7071067811865476 -0.7071067811865476 0
    outer loop
      vertex 1.9103012084960938 -2.629304885864258 10
      vertex 2.629304885864258 -1.9103012084960938 8
      vertex 2.629304885864258 -1.9103012084960938 10
    endloop
  endfacet
  facet normal 0.7071067811865476 -0.7071067811865476 0
    outer loop
      vertex 2.629304885864258 -1.9103012084960938 8
      vertex 1.9103012084960938 -2.629304885864258 10
      vertex 1.9103012084960938 -2.629304885864258 8
    endloop
  endfacet
  facet normal -0.7071067811865476 0.7071067811865476 0
    outer loop
      vertex -2.629304885864258 1.9103012084960938 8
      vertex -1.9103012084960938 2.629304885864258 10
      vertex -1.9103012084960938 2.629304885864258 8
    endloop
  endfacet
  facet normal -0.7071067811865476 0.7071067811865476 0
    outer loop
      vertex -1.9103012084960938 2.629304885864258 10
      vertex -2.629304885864258 1.9103012084960938 8
      vertex -2.629304885864258 1.9103012084960938 10
    endloop
  endfacet
  facet normal -0.8910066130302723 -0.45399032537744954 0
    outer loop
      vertex -2.629304885864258 -1.9103012084960938 8
      vertex -3.090932846069336 -1.0043048858642578 10
      vertex -3.090932846069336 -1.0043048858642578 8
    endloop
  endfacet
  facet normal -0.8910066130302723 -0.45399032537744954 0
    outer loop
      vertex -3.090932846069336 -1.0043048858642578 10
      vertex -2.629304885864258 -1.9103012084960938 8
      vertex -2.629304885864258 -1.9103012084960938 10
    endloop
  endfacet
  facet normal -0.1564353156984086 0.9876882058637428 0
    outer loop
      vertex 0 3.25 8
      vertex -1.0043048858642578 3.090932846069336 10
      vertex 0 3.25 10
    endloop
  endfacet
  facet normal -0.1564353156984086 0.9876882058637428 0
    outer loop
      vertex -1.0043048858642578 3.090932846069336 10
      vertex 0 3.25 8
      vertex -1.0043048858642578 3.090932846069336 8
    endloop
  endfacet
  facet normal -0.45399032537744954 -0.8910066130302723 0
    outer loop
      vertex -1.9103012084960938 -2.629304885864258 8
      vertex -1.0043048858642578 -3.090932846069336 10
      vertex -1.9103012084960938 -2.629304885864258 10
    endloop
  endfacet
  facet normal -0.45399032537744954 -0.8910066130302723 0
    outer loop
      vertex -1.0043048858642578 -3.090932846069336 10
      vertex -1.9103012084960938 -2.629304885864258 8
      vertex -1.0043048858642578 -3.090932846069336 8
    endloop
  endfacet
  facet normal 0.8910066130302723 -0.45399032537744954 0
    outer loop
      vertex 2.629304885864258 -1.9103012084960938 10
      vertex 3.090932846069336 -1.0043048858642578 8
      vertex 3.090932846069336 -1.0043048858642578 10
    endloop
  endfacet
  facet normal 0.8910066130302723 -0.45399032537744954 0
    outer loop
      vertex 3.090932846069336 -1.0043048858642578 8
      vertex 2.629304885864258 -1.9103012084960938 10
      vertex 2.629304885864258 -1.9103012084960938 8
    endloop
  endfacet
  facet normal 0.15643578974576244 0.987688130781483 0
    outer loop
      vertex 0 -1.5 0
      vertex -0.46352481842041016 -1.426584243774414 10
      vertex 0 -1.5 10
    endloop
  endfacet
  facet normal 0.15643578974576244 0.987688130781483 0
    outer loop
      vertex -0.46352481842041016 -1.426584243774414 10
      vertex 0 -1.5 0
      vertex -0.46352481842041016 -1.426584243774414 0
    endloop
  endfacet
  facet normal -0.987688130781483 -0.15643578974576244 0
    outer loop
      vertex 1.5 0 0
      vertex 1.426584243774414 0.46352481842041016 10
      vertex 1.426584243774414 0.46352481842041016 0
    endloop
  endfacet
  facet normal -0.987688130781483 -0.15643578974576244 0
    outer loop
      vertex 1.426584243774414 0.46352481842041016 10
      vertex 1.5 0 0
      vertex 1.5 0 10
    endloop
  endfacet
  facet normal 0.7071067811865476 0.7071067811865476 0
    outer loop
      vertex -0.8816776275634766 -1.2135248184204102 10
      vertex -1.2135248184204102 -0.8816776275634766 0
      vertex -1.2135248184204102 -0.8816776275634766 10
    endloop
  endfacet
  facet normal 0.7071067811865476 0.7071067811865476 0
    outer loop
      vertex -1.2135248184204102 -0.8816776275634766 0
      vertex -0.8816776275634766 -1.2135248184204102 10
      vertex -0.8816776275634766 -1.2135248184204102 0
    endloop
  endfacet
  facet normal 0.45399037678788584 -0.8910065868353574 0
    outer loop
      vertex -0.8816776275634766 1.2135248184204102 0
      vertex -0.46352481842041016 1.426584243774414 10
      vertex -0.8816776275634766 1.2135248184204102 10
    endloop
  endfacet
  facet normal 0.45399037678788584 -0.8910065868353574 0
    outer loop
      vertex -0.46352481842041016 1.426584243774414 10
      vertex -0.8816776275634766 1.2135248184204102 0
      vertex -0.46352481842041016 1.426584243774414 0
    endloop
  endfacet
  facet normal 0.987688130781483 -0.15643578974576244 0
    outer loop
      vertex -1.5 0 10
      vertex -1.426584243774414 0.46352481842041016 0
      vertex -1.426584243774414 0.46352481842041016 10
    endloop
  endfacet
  facet normal 0.987688130781483 -0.15643578974576244 0
    outer loop
      vertex -1.426584243774414 0.46352481842041016 0
      vertex -1.5 0 10
      vertex -1.5 0 0
    endloop
  endfacet
  facet normal 0.8910065868353574 -0.45399037678788584 0
    outer loop
      vertex -1.426584243774414 0.46352481842041016 10
      vertex -1.2135248184204102 0.8816776275634766 0
      vertex -1.2135248184204102 0.8816776275634766 10
    endloop
  endfacet
  facet normal 0.8910065868353574 -0.45399037678788584 0
    outer loop
      vertex -1.2135248184204102 0.8816776275634766 0
      vertex -1.426584243774414 0.46352481842041016 10
      vertex -1.426584243774414 0.46352481842041016 0
    endloop
  endfacet
  facet normal -0.45399037678788584 -0.8910065868353574 0
    outer loop
      vertex 0.46352481842041016 1.426584243774414 0
      vertex 0.8816776275634766 1.2135248184204102 10
      vertex 0.46352481842041016 1.426584243774414 10
    endloop
  endfacet
  facet normal -0.45399037678788584 -0.8910065868353574 0
    outer loop
      vertex 0.8816776275634766 1.2135248184204102 10
      vertex 0.46352481842041016 1.426584243774414 0
      vertex 0.8816776275634766 1.2135248184204102 0
    endloop
  endfacet
  facet normal -0.15643578974576244 -0.987688130781483 0
    outer loop
      vertex 0 1.5 0
      vertex 0.46352481842041016 1.426584243774414 10
      vertex 0 1.5 10
    endloop
  endfacet
  facet normal -0.15643578974576244 -0.987688130781483 0
    outer loop
      vertex 0.46352481842041016 1.426584243774414 10
      vertex 0 1.5 0
      vertex 0.46352481842041016 1.426584243774414 0
    endloop
  endfacet
  facet normal -0.45399037678788584 0.8910065868353574 0
    outer loop
      vertex 0.8816776275634766 -1.2135248184204102 0
      vertex 0.46352481842041016 -1.426584243774414 10
      vertex 0.8816776275634766 -1.2135248184204102 10
    endloop
  endfacet
  facet normal -0.45399037678788584 0.8910065868353574 0
    outer loop
      vertex 0.46352481842041016 -1.426584243774414 10
      vertex 0.8816776275634766 -1.2135248184204102 0
      vertex 0.46352481842041016 -1.426584243774414 0
    endloop
  endfacet
  facet normal -0.8910065868353574 -0.45399037678788584 0
    outer loop
      vertex 1.426584243774414 0.46352481842041016 0
      vertex 1.2135248184204102 0.8816776275634766 10
      vertex 1.2135248184204102 0.8816776275634766 0
    endloop
  endfacet
  facet normal -0.8910065868353574 -0.45399037678788584 0
    outer loop
      vertex 1.2135248184204102 0.8816776275634766 10
      vertex 1.426584243774414 0.46352481842041016 0
      vertex 1.426584243774414 0.46352481842041016 10
    endloop
  endfacet
  facet normal -0.7071067811865476 -0.7071067811865476 0
    outer loop
      vertex 1.2135248184204102 0.8816776275634766 0
      vertex 0.8816776275634766 1.2135248184204102 10
      vertex 0.8816776275634766 1.2135248184204102 0
    endloop
  endfacet
  facet normal -0.7071067811865476 -0.7071067811865476 0
    outer loop
      vertex 0.8816776275634766 1.2135248184204102 10
      vertex 1.2135248184204102 0.8816776275634766 0
      vertex 1.2135248184204102 0.8816776275634766 10
    endloop
  endfacet
  facet normal -0.15643578974576244 0.987688130781483 0
    outer loop
      vertex 0.46352481842041016 -1.426584243774414 0
      vertex 0 -1.5 10
      vertex 0.46352481842041016 -1.426584243774414 10
    endloop
  endfacet
  facet normal -0.15643578974576244 0.987688130781483 0
    outer loop
      vertex 0 -1.5 10
      vertex 0.46352481842041016 -1.426584243774414 0
      vertex 0 -1.5 0
    endloop
  endfacet
  facet normal 0.987688130781483 0.15643578974576244 0
    outer loop
      vertex -1.426584243774414 -0.46352481842041016 10
      vertex -1.5 0 0
      vertex -1.5 0 10
    endloop
  endfacet
  facet normal 0.987688130781483 0.15643578974576244 0
    outer loop
      vertex -1.5 0 0
      vertex -1.426584243774414 -0.46352481842041016 10
      vertex -1.426584243774414 -0.46352481842041016 0
    endloop
  endfacet
  facet normal -0.987688130781483 0.15643578974576244 0
    outer loop
      vertex 1.426584243774414 -0.46352481842041016 0
      vertex 1.5 0 10
      vertex 1.5 0 0
    endloop
  endfacet
  facet normal -0.987688130781483 0.15643578974576244 0
    outer loop
      vertex 1.5 0 10
      vertex 1.426584243774414 -0.46352481842041016 0
      vertex 1.426584243774414 -0.46352481842041016 10
    endloop
  endfacet
  facet normal -0.7071067811865476 0.7071067811865476 0
    outer loop
      vertex 0.8816776275634766 -1.2135248184204102 0
      vertex 1.2135248184204102 -0.8816776275634766 10
      vertex 1.2135248184204102 -0.8816776275634766 0
    endloop
  endfacet
  facet normal -0.7071067811865476 0.7071067811865476 0
    outer loop
      vertex 1.2135248184204102 -0.8816776275634766 10
      vertex 0.8816776275634766 -1.2135248184204102 0
      vertex 0.8816776275634766 -1.2135248184204102 10
    endloop
  endfacet
  facet normal 0.7071067811865476 -0.7071067811865476 0
    outer loop
      vertex -1.2135248184204102 0.8816776275634766 10
      vertex -0.8816776275634766 1.2135248184204102 0
      vertex -0.8816776275634766 1.2135248184204102 10
    endloop
  endfacet
  facet normal 0.7071067811865476 -0.7071067811865476 0
    outer loop
      vertex -0.8816776275634766 1.2135248184204102 0
      vertex -1.2135248184204102 0.8816776275634766 10
      vertex -1.2135248184204102 0.8816776275634766 0
    endloop
  endfacet
  facet normal 0.8910065868353574 0.45399037678788584 0
    outer loop
      vertex -1.2135248184204102 -0.8816776275634766 10
      vertex -1.426584243774414 -0.46352481842041016 0
      vertex -1.426584243774414 -0.46352481842041016 10
    endloop
  endfacet
  facet normal 0.8910065868353574 0.45399037678788584 0
    outer loop
      vertex -1.426584243774414 -0.46352481842041016 0
      vertex -1.2135248184204102 -0.8816776275634766 10
      vertex -1.2135248184204102 -0.8816776275634766 0
    endloop
  endfacet
  facet normal 0.15643578974576244 -0.987688130781483 0
    outer loop
      vertex -0.46352481842041016 1.426584243774414 0
      vertex 0 1.5 10
      vertex -0.46352481842041016 1.426584243774414 10
    endloop
  endfacet
  facet normal 0.15643578974576244 -0.987688130781483 0
    outer loop
      vertex 0 1.5 10
      vertex -0.46352481842041016 1.426584243774414 0
      vertex 0 1.5 0
    endloop
  endfacet
  facet normal 0.45399037678788584 0.8910065868353574 0
    outer loop
      vertex -0.46352481842041016 -1.426584243774414 0
      vertex -0.8816776275634766 -1.2135248184204102 10
      vertex -0.46352481842041016 -1.426584243774414 10
    endloop
  endfacet
  facet normal 0.45399037678788584 0.8910065868353574 0
    outer loop
      vertex -0.8816776275634766 -1.2135248184204102 10
      vertex -0.46352481842041016 -1.426584243774414 0
      vertex -0.8816776275634766 -1.2135248184204102 0
    endloop
  endfacet
  facet normal -0.8910065868353574 0.45399037678788584 0
    outer loop
      vertex 1.2135248184204102 -0.8816776275634766 0
      vertex 1.426584243774414 -0.46352481842041016 10
      vertex 1.426584243774414 -0.46352481842041016 0
    endloop
  endfacet
  facet normal -0.8910065868353574 0.45399037678788584 0
    outer loop
      vertex 1.426584243774414 -0.46352481842041016 10
      vertex 1.2135248184204102 -0.8816776275634766 0
      vertex 1.2135248184204102 -0.8816776275634766 10
    endloop
  endfacet
endsolid OpenSCAD_Model
